<svg width="24" height="24" viewBox="0 0 24 24" fill="none" xmlns="http://www.w3.org/2000/svg">
<path d="M20.5202 5.72921C20.6702 5.584 20.7899 5.41027 20.8723 5.21817C20.9546 5.02606 20.998 4.81943 20.9999 4.61032C21.0018 4.4012 20.9622 4.1938 20.8834 4.00022C20.8045 3.80663 20.688 3.63074 20.5407 3.4828C20.3934 3.33486 20.2181 3.21784 20.0252 3.13856C19.8323 3.05928 19.6256 3.01933 19.4171 3.02105C19.2087 3.02277 19.0027 3.06612 18.8111 3.14856C18.6195 3.23101 18.4462 3.35091 18.3013 3.50125L12.0089 9.81133L5.71857 3.50125C5.57484 3.34652 5.40151 3.22242 5.20893 3.13634C5.01635 3.05026 4.80846 3.00398 4.59766 3.00025C4.38686 2.99651 4.17747 3.03541 3.98198 3.11462C3.78649 3.19383 3.60891 3.31173 3.45983 3.46128C3.31075 3.61083 3.19322 3.78896 3.11426 3.98507C3.0353 4.18117 2.99653 4.39122 3.00024 4.60268C3.00396 4.81414 3.0501 5.02268 3.13591 5.21587C3.22172 5.40905 3.34544 5.58293 3.49968 5.72711L9.78582 12.0393L3.4955 18.3494C3.21818 18.6479 3.06721 19.0428 3.07438 19.4508C3.08156 19.8588 3.24632 20.2481 3.53397 20.5366C3.82161 20.8252 4.20968 20.9905 4.6164 20.9977C5.02313 21.0049 5.41677 20.8534 5.71438 20.5752L12.0089 14.2651L18.2992 20.5773C18.5968 20.8555 18.9905 21.007 19.3972 20.9998C19.8039 20.9926 20.192 20.8273 20.4796 20.5387C20.7673 20.2502 20.932 19.8609 20.9392 19.4529C20.9464 19.0449 20.7954 18.65 20.5181 18.3515L14.232 12.0393L20.5202 5.72921Z" fill="#434343"/>
</svg>
