<svg width="24" height="24" viewBox="0 0 24 24" fill="none" xmlns="http://www.w3.org/2000/svg">
<mask id="path-1-inside-1_305_16378" fill="white">
<path d="M3.75 4.125H20.25C20.5484 4.125 20.8345 4.24353 21.0455 4.4545C21.2565 4.66548 21.375 4.95163 21.375 5.25V18.75C21.375 19.0484 21.2565 19.3345 21.0455 19.5455C20.8345 19.7565 20.5484 19.875 20.25 19.875H3.75C3.45163 19.875 3.16548 19.7565 2.95451 19.5455C2.74353 19.3345 2.625 19.0484 2.625 18.75V5.25C2.625 4.95163 2.74353 4.66548 2.95451 4.4545C3.16548 4.24353 3.45163 4.125 3.75 4.125ZM20.25 4.875H3.75C3.65054 4.875 3.55516 4.91451 3.48483 4.98484C3.41451 5.05516 3.375 5.15054 3.375 5.25V15.7875L6.45844 12.7041C6.56295 12.5992 6.68715 12.516 6.82389 12.4592C6.96064 12.4024 7.10725 12.3732 7.25531 12.3732C7.40338 12.3732 7.54999 12.4024 7.68673 12.4592C7.82348 12.516 7.94767 12.5992 8.05219 12.7041L10.1925 14.8444L14.5819 10.4541C14.6864 10.3492 14.8106 10.266 14.9473 10.2092C15.0841 10.1524 15.2307 10.1232 15.3787 10.1232C15.5268 10.1232 15.6734 10.1524 15.8102 10.2092C15.9469 10.266 16.0711 10.3492 16.1756 10.4541L20.625 14.9062V5.25C20.625 5.15054 20.5855 5.05516 20.5152 4.98484C20.4448 4.91451 20.3495 4.875 20.25 4.875ZM20.625 18.75V15.9694L15.6403 10.9847C15.6055 10.9498 15.5641 10.9222 15.5186 10.9033C15.4731 10.8844 15.4243 10.8747 15.375 10.8747C15.3257 10.8747 15.2769 10.8844 15.2314 10.9033C15.1859 10.9222 15.1445 10.9498 15.1097 10.9847L6.96937 19.125H20.25C20.3495 19.125 20.4448 19.0855 20.5152 19.0152C20.5855 18.9448 20.625 18.8495 20.625 18.75ZM3.75 19.125H5.90625L9.65625 15.375L7.51594 13.2347C7.48111 13.1998 7.43975 13.1722 7.39423 13.1533C7.3487 13.1344 7.29991 13.1247 7.25062 13.1247C7.20134 13.1247 7.15255 13.1344 7.10702 13.1533C7.0615 13.1722 7.02014 13.1998 6.98531 13.2347L3.375 16.8478V18.75C3.375 18.8495 3.41451 18.9448 3.48483 19.0152C3.55516 19.0855 3.65054 19.125 3.75 19.125ZM10.125 9.375C10.125 9.22666 10.081 9.08166 9.9986 8.95832C9.91619 8.83499 9.79906 8.73886 9.66201 8.68209C9.52497 8.62532 9.37417 8.61047 9.22868 8.63941C9.0832 8.66835 8.94956 8.73978 8.84467 8.84467C8.73978 8.94956 8.66835 9.0832 8.63941 9.22868C8.61047 9.37417 8.62532 9.52497 8.68209 9.66201C8.73886 9.79906 8.83498 9.91619 8.95832 9.9986C9.08166 10.081 9.22666 10.125 9.375 10.125C9.57391 10.125 9.76468 10.046 9.90533 9.90533C10.046 9.76468 10.125 9.57391 10.125 9.375Z"/>
</mask>
<path d="M3.75 4.125H20.25C20.5484 4.125 20.8345 4.24353 21.0455 4.4545C21.2565 4.66548 21.375 4.95163 21.375 5.25V18.75C21.375 19.0484 21.2565 19.3345 21.0455 19.5455C20.8345 19.7565 20.5484 19.875 20.25 19.875H3.75C3.45163 19.875 3.16548 19.7565 2.95451 19.5455C2.74353 19.3345 2.625 19.0484 2.625 18.75V5.25C2.625 4.95163 2.74353 4.66548 2.95451 4.4545C3.16548 4.24353 3.45163 4.125 3.75 4.125ZM20.25 4.875H3.75C3.65054 4.875 3.55516 4.91451 3.48483 4.98484C3.41451 5.05516 3.375 5.15054 3.375 5.25V15.7875L6.45844 12.7041C6.56295 12.5992 6.68715 12.516 6.82389 12.4592C6.96064 12.4024 7.10725 12.3732 7.25531 12.3732C7.40338 12.3732 7.54999 12.4024 7.68673 12.4592C7.82348 12.516 7.94767 12.5992 8.05219 12.7041L10.1925 14.8444L14.5819 10.4541C14.6864 10.3492 14.8106 10.266 14.9473 10.2092C15.0841 10.1524 15.2307 10.1232 15.3787 10.1232C15.5268 10.1232 15.6734 10.1524 15.8102 10.2092C15.9469 10.266 16.0711 10.3492 16.1756 10.4541L20.625 14.9062V5.25C20.625 5.15054 20.5855 5.05516 20.5152 4.98484C20.4448 4.91451 20.3495 4.875 20.25 4.875ZM20.625 18.75V15.9694L15.6403 10.9847C15.6055 10.9498 15.5641 10.9222 15.5186 10.9033C15.4731 10.8844 15.4243 10.8747 15.375 10.8747C15.3257 10.8747 15.2769 10.8844 15.2314 10.9033C15.1859 10.9222 15.1445 10.9498 15.1097 10.9847L6.96937 19.125H20.25C20.3495 19.125 20.4448 19.0855 20.5152 19.0152C20.5855 18.9448 20.625 18.8495 20.625 18.75ZM3.75 19.125H5.90625L9.65625 15.375L7.51594 13.2347C7.48111 13.1998 7.43975 13.1722 7.39423 13.1533C7.3487 13.1344 7.29991 13.1247 7.25062 13.1247C7.20134 13.1247 7.15255 13.1344 7.10702 13.1533C7.0615 13.1722 7.02014 13.1998 6.98531 13.2347L3.375 16.8478V18.75C3.375 18.8495 3.41451 18.9448 3.48483 19.0152C3.55516 19.0855 3.65054 19.125 3.75 19.125ZM10.125 9.375C10.125 9.22666 10.081 9.08166 9.9986 8.95832C9.91619 8.83499 9.79906 8.73886 9.66201 8.68209C9.52497 8.62532 9.37417 8.61047 9.22868 8.63941C9.0832 8.66835 8.94956 8.73978 8.84467 8.84467C8.73978 8.94956 8.66835 9.0832 8.63941 9.22868C8.61047 9.37417 8.62532 9.52497 8.68209 9.66201C8.73886 9.79906 8.83498 9.91619 8.95832 9.9986C9.08166 10.081 9.22666 10.125 9.375 10.125C9.57391 10.125 9.76468 10.046 9.90533 9.90533C10.046 9.76468 10.125 9.57391 10.125 9.375Z" fill="#434343"/>
<path d="M20.25 4.125V6.125V4.125ZM3.75 19.875V21.875V19.875ZM3.375 15.7875L4.78921 17.2017L1.375 20.6159V15.7875H3.375ZM6.45844 12.7041L7.87511 14.1158L7.87265 14.1183L6.45844 12.7041ZM8.05219 12.7041L6.63797 14.1183L6.63552 14.1158L8.05219 12.7041ZM10.1925 14.8444L11.6069 16.2584L10.1927 17.673L8.77829 16.2586L10.1925 14.8444ZM14.5819 10.4541L15.9985 11.8658L15.9962 11.8681L14.5819 10.4541ZM16.1756 10.4541L14.761 11.8678L14.759 11.8658L16.1756 10.4541ZM20.625 14.9062H22.625V19.7368L19.2103 16.32L20.625 14.9062ZM20.625 15.9694L22.0392 14.5552L22.625 15.1409V15.9694H20.625ZM15.6403 10.9847L14.2261 12.3989L14.2253 12.3981L15.6403 10.9847ZM15.1097 10.9847L16.5247 12.3981L16.5239 12.3989L15.1097 10.9847ZM6.96937 19.125V21.125H2.14095L5.55516 17.7108L6.96937 19.125ZM5.90625 19.125L7.32046 20.5392L6.73468 21.125H5.90625V19.125ZM9.65625 15.375L11.0705 13.9608L12.4847 15.375L11.0705 16.7892L9.65625 15.375ZM7.51594 13.2347L6.10172 14.6489L6.10094 14.6481L7.51594 13.2347ZM6.98531 13.2347L8.40031 14.6481L8.40008 14.6483L6.98531 13.2347ZM3.375 16.8478H1.375V16.0198L1.96024 15.4342L3.375 16.8478ZM3.75 2.125H20.25V6.125H3.75V2.125ZM20.25 2.125C21.0788 2.125 21.8737 2.45424 22.4597 3.04029L19.6313 5.86872C19.7954 6.03281 20.0179 6.125 20.25 6.125V2.125ZM22.4597 3.04029C23.0458 3.62634 23.375 4.4212 23.375 5.25H19.375C19.375 5.48206 19.4672 5.70462 19.6313 5.86872L22.4597 3.04029ZM23.375 5.25V18.75H19.375V5.25H23.375ZM23.375 18.75C23.375 19.5788 23.0458 20.3737 22.4597 20.9597L19.6313 18.1313C19.4672 18.2954 19.375 18.5179 19.375 18.75H23.375ZM22.4597 20.9597C21.8737 21.5458 21.0788 21.875 20.25 21.875V17.875C20.0179 17.875 19.7954 17.9672 19.6313 18.1313L22.4597 20.9597ZM20.25 21.875H3.75V17.875H20.25V21.875ZM3.75 21.875C2.92119 21.875 2.12634 21.5458 1.54029 20.9597L4.36872 18.1313C4.20463 17.9672 3.98207 17.875 3.75 17.875V21.875ZM1.54029 20.9597C0.954243 20.3737 0.625 19.5788 0.625 18.75H4.625C4.625 18.5179 4.53281 18.2954 4.36872 18.1313L1.54029 20.9597ZM0.625 18.75V5.25H4.625V18.75H0.625ZM0.625 5.25C0.625 4.4212 0.954243 3.62634 1.54029 3.04029L4.36872 5.86872C4.53281 5.70463 4.625 5.48207 4.625 5.25H0.625ZM1.54029 3.04029C2.12634 2.45424 2.9212 2.125 3.75 2.125V6.125C3.98207 6.125 4.20462 6.03281 4.36872 5.86872L1.54029 3.04029ZM20.25 6.875H3.75V2.875H20.25V6.875ZM3.75 6.875C4.18098 6.875 4.5943 6.7038 4.89905 6.39905L2.07062 3.57062C2.51602 3.12522 3.12011 2.875 3.75 2.875V6.875ZM4.89905 6.39905C5.2038 6.0943 5.375 5.68097 5.375 5.25H1.375C1.375 4.62011 1.62522 4.01602 2.07062 3.57062L4.89905 6.39905ZM5.375 5.25V15.7875H1.375V5.25H5.375ZM1.96079 14.3733L5.04422 11.2898L7.87265 14.1183L4.78921 17.2017L1.96079 14.3733ZM5.04177 11.2923C5.3321 11.001 5.67708 10.7698 6.05692 10.6121L7.59086 14.3063C7.69721 14.2621 7.79381 14.1974 7.8751 14.1158L5.04177 11.2923ZM6.05692 10.6121C6.43676 10.4544 6.84401 10.3732 7.25531 10.3732V14.3732C7.37049 14.3732 7.48452 14.3504 7.59086 14.3063L6.05692 10.6121ZM7.25531 10.3732C7.66662 10.3732 8.07387 10.4544 8.4537 10.6121L6.91976 14.3063C7.02611 14.3504 7.14014 14.3732 7.25531 14.3732V10.3732ZM8.4537 10.6121C8.83354 10.7698 9.17852 11.001 9.46885 11.2923L6.63552 14.1158C6.71682 14.1974 6.81341 14.2621 6.91976 14.3063L8.4537 10.6121ZM9.4664 11.2898L11.6067 13.4302L8.77829 16.2586L6.63797 14.1183L9.4664 11.2898ZM8.77814 13.4303L13.1675 9.04L15.9962 11.8681L11.6069 16.2584L8.77814 13.4303ZM13.1652 9.04231C13.4555 8.75097 13.8005 8.51982 14.1804 8.36209L15.7143 12.0563C15.8207 12.0121 15.9173 11.9474 15.9985 11.8658L13.1652 9.04231ZM14.1804 8.36209C14.5602 8.20437 14.9675 8.12318 15.3787 8.12318V12.1232C15.4939 12.1232 15.6079 12.1004 15.7143 12.0563L14.1804 8.36209ZM15.3787 8.12318C15.79 8.12318 16.1973 8.20437 16.5771 8.36209L15.0432 12.0563C15.1496 12.1004 15.2636 12.1232 15.3787 12.1232V8.12318ZM16.5771 8.36209C16.957 8.51982 17.302 8.75097 17.5923 9.04231L14.759 11.8658C14.8402 11.9474 14.9368 12.0121 15.0432 12.0563L16.5771 8.36209ZM17.5903 9.0403L22.0397 13.4925L19.2103 16.32L14.761 11.8678L17.5903 9.0403ZM18.625 14.9062V5.25H22.625V14.9062H18.625ZM18.625 5.25C18.625 5.68098 18.7962 6.0943 19.101 6.39905L21.9294 3.57062C22.3748 4.01602 22.625 4.62011 22.625 5.25H18.625ZM19.101 6.39905C19.4057 6.70379 19.819 6.875 20.25 6.875V2.875C20.8799 2.875 21.484 3.12522 21.9294 3.57062L19.101 6.39905ZM18.625 18.75V15.9694H22.625V18.75H18.625ZM19.2108 17.3836L14.2261 12.3989L17.0545 9.57047L22.0392 14.5552L19.2108 17.3836ZM14.2253 12.3981C14.3762 12.5492 14.5554 12.6691 14.7527 12.7508L16.2845 9.05574C16.5728 9.17526 16.8347 9.35044 17.0553 9.57126L14.2253 12.3981ZM14.7527 12.7508C14.95 12.8326 15.1615 12.8747 15.375 12.8747V8.87471C15.6871 8.87471 15.9961 8.93622 16.2845 9.05574L14.7527 12.7508ZM15.375 12.8747C15.5885 12.8747 15.8 12.8326 15.9973 12.7508L14.4655 9.05574C14.7539 8.93622 15.0629 8.87471 15.375 8.87471V12.8747ZM15.9973 12.7508C16.1946 12.6691 16.3738 12.5492 16.5247 12.3981L13.6947 9.57126C13.9153 9.35044 14.1772 9.17526 14.4655 9.05574L15.9973 12.7508ZM16.5239 12.3989L8.38359 20.5392L5.55516 17.7108L13.6955 9.57047L16.5239 12.3989ZM6.96937 17.125H20.25V21.125H6.96937V17.125ZM20.25 17.125C19.819 17.125 19.4057 17.2962 19.101 17.601L21.9294 20.4294C21.484 20.8748 20.8799 21.125 20.25 21.125V17.125ZM19.101 17.601C18.7962 17.9057 18.625 18.319 18.625 18.75H22.625C22.625 19.3799 22.3748 19.984 21.9294 20.4294L19.101 17.601ZM3.75 17.125H5.90625V21.125H3.75V17.125ZM4.49204 17.7108L8.24204 13.9608L11.0705 16.7892L7.32046 20.5392L4.49204 17.7108ZM8.24204 16.7892L6.10172 14.6489L8.93015 11.8205L11.0705 13.9608L8.24204 16.7892ZM6.10094 14.6481C6.25185 14.7992 6.43106 14.9191 6.62835 15.0008L8.16011 11.3057C8.44844 11.4253 8.71037 11.6004 8.93094 11.8213L6.10094 14.6481ZM6.62835 15.0008C6.82564 15.0826 7.0371 15.1247 7.25062 15.1247V11.1247C7.56272 11.1247 7.87177 11.1862 8.16011 11.3057L6.62835 15.0008ZM7.25062 15.1247C7.46416 15.1247 7.67562 15.0826 7.8729 15.0008L6.34114 11.3057C6.62947 11.1862 6.93853 11.1247 7.25062 11.1247V15.1247ZM7.8729 15.0008C8.07017 14.9191 8.24939 14.7992 8.40031 14.6481L5.57031 11.8213C5.79089 11.6004 6.05283 11.4253 6.34114 11.3057L7.8729 15.0008ZM8.40008 14.6483L4.78976 18.2615L1.96024 15.4342L5.57055 11.821L8.40008 14.6483ZM5.375 16.8478V18.75H1.375V16.8478H5.375ZM5.375 18.75C5.375 18.319 5.2038 17.9057 4.89905 17.601L2.07062 20.4294C1.62522 19.984 1.375 19.3799 1.375 18.75H5.375ZM4.89905 17.601C4.5943 17.2962 4.18097 17.125 3.75 17.125V21.125C3.12012 21.125 2.51602 20.8748 2.07062 20.4294L4.89905 17.601ZM8.125 9.375C8.125 9.62222 8.19831 9.8639 8.33566 10.0695L11.6615 7.84718C11.9637 8.29942 12.125 8.83111 12.125 9.375H8.125ZM8.33566 10.0695C8.47302 10.275 8.66825 10.4352 8.89665 10.5298L10.4274 6.83433C10.9299 7.04247 11.3594 7.39494 11.6615 7.84718L8.33566 10.0695ZM8.89665 10.5298C9.12505 10.6245 9.37639 10.6492 9.61886 10.601L8.8385 6.67784C9.37195 6.57173 9.92488 6.62619 10.4274 6.83433L8.89665 10.5298ZM9.61886 10.601C9.86134 10.5527 10.0841 10.4337 10.2589 10.2589L7.43046 7.43046C7.81505 7.04586 8.30505 6.78395 8.8385 6.67784L9.61886 10.601ZM10.2589 10.2589C10.4337 10.0841 10.5528 9.86134 10.601 9.61886L6.67784 8.8385C6.78395 8.30506 7.04586 7.81505 7.43046 7.43046L10.2589 10.2589ZM10.601 9.61886C10.6492 9.37639 10.6245 9.12505 10.5298 8.89665L6.83433 10.4274C6.62619 9.92488 6.57173 9.37195 6.67784 8.8385L10.601 9.61886ZM10.5298 8.89665C10.4352 8.66824 10.275 8.47301 10.0695 8.33566L7.84718 11.6615C7.39495 11.3594 7.04247 10.9299 6.83433 10.4274L10.5298 8.89665ZM10.0695 8.33566C9.8639 8.19831 9.62223 8.125 9.375 8.125V12.125C8.8311 12.125 8.29942 11.9637 7.84718 11.6615L10.0695 8.33566ZM9.375 8.125C9.04348 8.125 8.72554 8.2567 8.49112 8.49112L11.3195 11.3195C10.8038 11.8353 10.1043 12.125 9.375 12.125V8.125ZM8.49112 8.49112C8.25669 8.72554 8.125 9.04348 8.125 9.375H12.125C12.125 10.1043 11.8353 10.8038 11.3195 11.3195L8.49112 8.49112Z" fill="#434343" mask="url(#path-1-inside-1_305_16378)"/>
</svg>
