<svg width="24" height="24" viewBox="0 0 24 24" fill="none" xmlns="http://www.w3.org/2000/svg">
<g clip-path="url(#clip0_298_16218)">
<path d="M4.07042 10.8833C4.07042 10.8692 4.05634 10.855 4.05634 10.8409C4.07042 10.8126 4.05634 10.7844 4.02817 10.7561C4.01408 10.7137 4.01408 10.6854 4 10.643C4.02817 10.5582 4.01408 10.4875 4 10.4027C4.01408 10.3462 4.01408 10.3038 4.02817 10.2473C4.05634 10.2331 4.05634 10.2049 4.05634 10.1625C4.08451 10.0918 4.12676 10.0211 4.15493 9.95045C4.1831 9.92218 4.19718 9.89391 4.22535 9.87978H4.23944V9.86564C4.26761 9.83737 4.28169 9.8091 4.30986 9.79497C4.32394 9.78084 4.33803 9.78084 4.35211 9.7667C4.38028 9.75257 4.39437 9.73843 4.42254 9.7243C4.74648 9.52642 5.09859 9.58296 5.43662 9.56882C5.56338 9.56882 5.67606 9.58296 5.76056 9.66776C5.78873 9.73843 5.84507 9.78084 5.91549 9.83737C5.92958 9.87978 5.94366 9.90804 5.98592 9.92218C6 9.95045 6.02817 9.96458 6.04225 9.99285C6.05634 10.007 6.05634 10.007 6.07042 10.0211C6.09859 10.0494 6.12676 10.0777 6.15493 10.1059C6.29577 10.2755 6.4507 10.4451 6.60563 10.6006C6.61972 10.6148 6.6338 10.6289 6.6338 10.643C6.67606 10.6996 6.73239 10.7561 6.77465 10.7985C6.90141 10.954 7.02817 11.1236 7.19718 11.2508C7.21127 11.2649 7.22535 11.2791 7.23944 11.2932C7.23944 11.3215 7.25352 11.3215 7.28169 11.3215C7.28169 11.3356 7.29577 11.3356 7.30986 11.3356C7.61972 11.59 7.95775 11.7172 8.35211 11.6748C8.39437 11.6748 8.42254 11.6607 8.46479 11.6607C8.80282 11.6324 9.07042 11.4628 9.26761 11.1801C9.29577 11.166 9.30986 11.1519 9.30986 11.1095C9.32394 11.0812 9.33803 11.0671 9.35211 11.0388C9.39437 11.0105 9.42254 10.9681 9.42254 10.9116C9.43662 10.9116 9.43662 10.8974 9.43662 10.8833C9.60563 10.5724 9.6338 10.2331 9.50704 9.89391C9.50704 9.87978 9.50704 9.87978 9.49296 9.86564C9.43662 9.55469 9.43662 9.55469 9.76056 9.55469C11.338 9.55469 12.9296 9.55469 14.507 9.55469C14.507 9.56882 14.5211 9.58296 14.5211 9.59709C14.5211 9.62536 14.507 9.65363 14.507 9.66776C14.493 9.66776 14.493 9.6819 14.493 9.69603C14.3803 9.93631 14.3239 10.1766 14.3944 10.4451C14.3944 10.4734 14.3944 10.5017 14.3944 10.5158C14.3803 10.5582 14.3803 10.6006 14.4225 10.643C14.4225 10.6713 14.4366 10.6854 14.4366 10.7137C14.4225 10.742 14.4366 10.7702 14.4648 10.7844C14.4648 10.8126 14.4648 10.8409 14.493 10.8692C14.5211 11.0247 14.6197 11.1377 14.7324 11.2367C14.7606 11.2932 14.8028 11.3356 14.8592 11.3639C14.8873 11.4204 14.9437 11.4628 15 11.4769H15.0141C15.0141 11.4911 15.0282 11.5052 15.0423 11.4911C15.0704 11.5194 15.1127 11.5476 15.1549 11.5476C15.4366 11.689 15.7324 11.7031 16.0282 11.6183C16.0563 11.6183 16.0845 11.6042 16.0986 11.6042C16.1831 11.6042 16.2535 11.5759 16.3099 11.5194C16.3239 11.5052 16.3521 11.5052 16.3662 11.4911C16.4085 11.4911 16.4366 11.4769 16.4648 11.4345C16.4789 11.4345 16.4789 11.4345 16.4789 11.4204C16.6901 11.3073 16.8451 11.1519 16.9718 10.9681C17.0423 10.9116 17.1127 10.8409 17.1549 10.7702C17.2394 10.6996 17.3239 10.6148 17.3803 10.5158C17.3944 10.5017 17.4085 10.4875 17.4225 10.4734C17.4366 10.4593 17.4366 10.4451 17.4507 10.4451C17.4648 10.431 17.4789 10.4169 17.493 10.4027C17.507 10.4027 17.5211 10.3886 17.5211 10.3745C17.5493 10.3462 17.5775 10.3179 17.6056 10.2755H17.6197V10.2614C17.6479 10.2331 17.662 10.219 17.6901 10.1907C17.7324 10.1625 17.7746 10.1201 17.8028 10.0635C17.8732 10.007 17.9296 9.95045 17.9718 9.86564C18.0423 9.8091 18.0986 9.75257 18.1408 9.6819C18.2113 9.63949 18.2676 9.56882 18.3662 9.56882C18.6901 9.56882 19.0141 9.54055 19.3239 9.62536C19.338 9.63949 19.3662 9.63949 19.3803 9.65363C19.3944 9.66776 19.4225 9.66776 19.4366 9.6819C19.4648 9.69603 19.4789 9.71016 19.507 9.7243C19.5211 9.73843 19.5352 9.75257 19.5493 9.75257C19.6761 9.86564 19.7746 9.99285 19.8592 10.1342C19.8873 10.219 19.9155 10.3179 19.9437 10.4027C19.9437 10.431 19.9437 10.4593 19.9577 10.4734C19.9014 10.9964 19.6197 11.3073 19.0986 11.4204C18.9155 11.4063 18.7465 11.3921 18.5634 11.4204C18.5211 11.4204 18.507 11.4487 18.507 11.4769C18.4085 12.0141 18.3239 12.5512 18.2394 13.0883C18.2394 13.1024 18.2394 13.1165 18.2254 13.1307C18.1127 13.6254 18.0282 14.1201 17.9577 14.6148C17.9577 14.6289 17.9577 14.643 17.9577 14.6572C17.831 15.2225 17.7324 15.7738 17.6479 16.3533C17.6338 16.3674 17.6338 16.3674 17.6338 16.3815C17.662 16.4381 17.662 16.4805 17.6761 16.5229C17.6761 16.537 17.6761 16.5512 17.662 16.5794C17.6197 16.6218 17.6197 16.6642 17.6338 16.7208C17.6338 16.749 17.6197 16.7773 17.6197 16.8056C17.5634 16.9469 17.5493 17.0883 17.5493 17.2296C17.493 17.3992 17.4648 17.583 17.4507 17.7667C17.4507 17.795 17.4507 17.8232 17.4366 17.8374C17.3944 17.9504 17.3662 18.0635 17.3662 18.1907C17.3662 18.219 17.3521 18.2331 17.3521 18.2614C17.3099 18.3603 17.2958 18.4593 17.2958 18.5724C17.2958 18.6006 17.2817 18.6148 17.2817 18.643C17.2535 18.7137 17.2254 18.7985 17.2394 18.8692C17.2394 18.8974 17.2254 18.9116 17.2254 18.9398C17.1268 19.1943 17.1549 19.4769 17 19.7172C16.9859 19.7314 16.9859 19.7314 16.9718 19.7455C16.9155 19.802 16.8592 19.8444 16.8028 19.901C16.6197 19.9858 16.4366 19.9999 16.2394 19.9999C14.507 19.9999 12.7887 19.9999 11.0563 19.9999C9.8169 19.9999 8.57746 19.9999 7.35211 19.9858C7.19718 19.9292 7.08451 19.8303 6.97183 19.7031C6.87324 19.5194 6.84507 19.3073 6.78873 19.1095C6.78873 19.0812 6.77465 19.0671 6.77465 19.0388C6.77465 18.9964 6.77465 18.954 6.77465 18.9116C6.64789 18.2049 6.52113 17.4982 6.38028 16.8056C6.28169 16.325 6.22535 15.8303 6.09859 15.3639C6.09859 15.3356 6.09859 15.3073 6.08451 15.2932C6.01408 14.855 5.94366 14.431 5.85915 13.9928C5.76056 13.484 5.70423 12.9752 5.56338 12.4805C5.56338 12.4663 5.56338 12.4522 5.5493 12.4381C5.53521 12.3815 5.52113 12.3109 5.50704 12.2543L5.52113 12.2402H5.50704V12.2261H5.49296C5.49296 12.1837 5.47887 12.1554 5.47887 12.113C5.47887 11.9575 5.43662 11.802 5.39437 11.6466C5.38028 11.5759 5.42254 11.4911 5.30986 11.4769C5.15493 11.4628 5 11.4628 4.85915 11.4769C4.80282 11.4628 4.76056 11.4345 4.70423 11.4628C4.67606 11.4628 4.64789 11.4487 4.6338 11.4487C4.61972 11.4204 4.59155 11.4063 4.5493 11.4204C4.53521 11.4063 4.50704 11.4063 4.49296 11.3921C4.47887 11.378 4.46479 11.378 4.43662 11.3639C4.43662 11.3497 4.42254 11.3497 4.42254 11.3497C4.39437 11.3073 4.35211 11.2649 4.29577 11.2508C4.26761 11.2225 4.23944 11.1943 4.21127 11.1801C4.19718 11.1095 4.16901 11.0671 4.14085 11.0388C4.14085 10.9822 4.11268 10.9257 4.07042 10.8833ZM15.7746 14.4027C15.7746 14.1907 15.7746 13.9646 15.7746 13.7526C15.7746 13.7384 15.7746 13.7243 15.7746 13.7102C15.7746 13.5547 15.7746 13.3992 15.7746 13.2579C15.7746 13.2155 15.7606 13.1872 15.7183 13.1872C15.4648 13.1872 15.2254 13.1872 14.9718 13.1872C14.8873 13.1872 14.8873 13.2579 14.8873 13.3144C14.8873 13.4699 14.8873 13.6254 14.9014 13.795C14.9014 13.9787 14.9014 14.1483 14.9014 14.3321C14.9014 14.5724 14.8873 14.7985 14.8873 15.0388C14.8873 15.5759 14.8873 16.0989 14.9014 16.636C14.9014 16.749 14.9014 16.8621 14.9014 16.9752C14.8873 17.2579 14.8873 17.5406 14.9014 17.8232C14.9014 17.8939 14.9014 17.9787 14.9014 18.0494C14.8873 18.1342 14.9577 18.1201 15 18.1201C15.1127 18.1201 15.2254 18.1201 15.338 18.1201C15.8028 18.1201 15.8028 18.1201 15.7606 17.6254C15.7606 17.4275 15.7606 17.2437 15.7606 17.0459C15.7606 17.0317 15.7606 17.0176 15.7606 17.0035C15.7746 16.7914 15.7746 16.5653 15.7606 16.3533C15.7887 16.1413 15.7887 15.9151 15.7606 15.7031C15.7746 15.4911 15.7746 15.2649 15.7606 15.0529C15.7887 14.855 15.7746 14.643 15.7606 14.4451C15.7746 14.431 15.7746 14.4169 15.7746 14.4027ZM8.1831 17.7102C8.1831 17.8232 8.1831 17.9363 8.1831 18.0494C8.1831 18.1625 8.26761 18.1201 8.32394 18.1201C8.50704 18.1201 8.67606 18.1059 8.85916 18.1201C9.02817 18.1342 9.07042 18.0777 9.07042 17.908C9.07042 16.8338 9.07042 15.7596 9.07042 14.6854C9.07042 14.2473 9.07042 13.8091 9.07042 13.3568C9.07042 13.272 9.08451 13.1872 8.95775 13.1872C8.73239 13.1872 8.49296 13.1872 8.26761 13.1872C8.19718 13.1872 8.15493 13.2296 8.16901 13.3003C8.1831 13.4557 8.14085 13.6112 8.1831 13.7526C8.1831 13.9504 8.1831 14.1625 8.1831 14.3603C8.16901 14.6006 8.16901 14.855 8.1831 15.0953C8.1831 15.2932 8.1831 15.5052 8.1831 15.7031C8.16901 15.9292 8.16901 16.1695 8.1831 16.3957C8.1831 16.5936 8.1831 16.7773 8.1831 16.9752C8.16901 17.2296 8.16901 17.4699 8.1831 17.7102ZM12.6901 13.3003C12.6761 13.4557 12.6761 13.6112 12.6901 13.7526C12.6761 13.9646 12.6761 14.1907 12.6901 14.4027C12.6761 14.6148 12.6761 14.8409 12.6901 15.0529C12.6761 15.2649 12.6761 15.4911 12.6901 15.7031C12.6761 15.9151 12.6761 16.1413 12.6901 16.3533C12.6761 16.5794 12.6761 16.8197 12.6901 17.0459C12.6761 17.2437 12.6761 17.4275 12.6901 17.6254C12.6901 17.7384 12.6901 17.8374 12.6761 17.9504C12.662 18.0777 12.7042 18.1201 12.831 18.1201C13.0282 18.1059 13.2254 18.1201 13.4225 18.1201C13.4648 18.1201 13.5493 18.1483 13.5493 18.0494C13.5493 17.9363 13.5493 17.8232 13.5493 17.7102C13.5493 17.4699 13.5493 17.2296 13.5493 16.9752C13.5493 16.7773 13.5493 16.5936 13.5493 16.3957C13.5493 16.1554 13.5493 15.9151 13.5493 15.6607C13.5493 15.4628 13.5493 15.2791 13.5493 15.0812C13.5493 14.8409 13.5493 14.6006 13.5493 14.3462C13.5493 14.1483 13.5493 13.9646 13.5493 13.7667C13.5493 13.6112 13.5493 13.4557 13.5634 13.2861C13.5634 13.2013 13.5352 13.1589 13.4366 13.1589C13.2254 13.1589 13.0141 13.1589 12.7887 13.1589C12.7324 13.2013 12.6761 13.2013 12.6901 13.3003ZM10.3944 15.6607C10.3944 16.4239 10.3944 17.2013 10.3944 17.9646C10.3944 18.0918 10.4366 18.1483 10.5634 18.1342C10.7324 18.1201 10.9014 18.1201 11.0563 18.1342C11.2394 18.1483 11.2958 18.0918 11.2958 17.908C11.2817 17.1448 11.2958 16.3815 11.2958 15.6183C11.2958 14.8833 11.2958 14.1342 11.2958 13.3992C11.2958 13.2296 11.2394 13.1872 11.0845 13.2013C10.9155 13.2155 10.7465 13.2155 10.5634 13.2013C10.4225 13.1872 10.3803 13.2437 10.3803 13.3851C10.3944 14.1342 10.3944 14.8974 10.3944 15.6607Z" fill="#434343"/>
<path d="M9.63381 5.31451C9.64789 5.30038 9.64789 5.28624 9.66198 5.27211C9.67606 5.25798 9.67606 5.24384 9.69015 5.22971C9.90141 4.91875 10.169 4.63607 10.4648 4.39579H10.4789V4.38165C10.507 4.36752 10.5352 4.33925 10.5775 4.32511C10.5916 4.32511 10.5916 4.31098 10.6056 4.31098C10.6479 4.29685 10.6901 4.28271 10.7324 4.26858C10.7747 4.29685 10.8169 4.33925 10.8451 4.36752C10.8732 4.45232 10.8451 4.52299 10.8028 4.57953C10.7747 4.59367 10.7465 4.6078 10.7324 4.62193C10.7042 4.62193 10.6901 4.63607 10.6901 4.6502C10.6761 4.6502 10.662 4.66434 10.662 4.66434C10.5775 4.67847 10.5211 4.72087 10.493 4.81981C10.5775 4.83395 10.6338 4.84808 10.7042 4.86222C10.7183 4.87635 10.7465 4.89049 10.7606 4.89049C10.7747 4.90462 10.8028 4.90462 10.8169 4.91875C10.8451 4.93289 10.8732 4.94702 10.8873 4.96116C10.8873 4.98943 10.9014 5.00356 10.9296 4.98943C11.1268 5.15904 11.3099 5.32865 11.507 5.49826C11.5211 5.5548 11.5634 5.61133 11.662 5.6396C11.5775 5.32865 11.7042 5.08837 11.8169 4.83395C11.8592 4.73501 11.9014 4.62193 11.9578 4.52299C12.0141 4.39579 11.9578 4.36752 11.8451 4.36752C11.831 4.35338 11.8169 4.33925 11.8028 4.32511C11.7887 4.29685 11.7887 4.26858 11.7747 4.25444C11.7747 4.21204 11.7887 4.16964 11.7887 4.12723C11.8169 4.09897 11.831 4.08483 11.8592 4.05656C11.9437 4.04243 12.0423 4.02829 12.1268 4.01416C12.2254 4.01416 12.338 4.01416 12.4366 4.01416C12.507 4.05656 12.5775 4.02829 12.6479 4.02829C13.3239 4.02829 14 4.02829 14.6901 4.02829C14.9718 4.02829 15.2676 4.01416 15.5493 4.04243C15.5634 4.05656 15.5775 4.0707 15.5916 4.08483C15.6056 4.1131 15.6197 4.14137 15.6197 4.1555C15.6197 4.22617 15.6056 4.29685 15.5352 4.35338C15.3803 4.39579 15.4789 4.49473 15.507 4.5654C15.662 4.96116 15.7606 5.37105 15.7465 5.80921C15.7183 6.61487 15.7465 7.42052 15.7465 8.22617C15.662 8.32511 15.5775 8.40992 15.507 8.50886C15.4085 8.6078 15.3099 8.70674 15.2113 8.80568C15.1549 8.86222 15.0986 8.89049 15.0141 8.89049C14.1409 8.89049 13.2535 8.89049 12.3803 8.89049C12.3099 8.89049 12.2394 8.89049 12.2113 8.80568C12.2113 8.72087 12.2113 8.6502 12.2113 8.5654C12.2394 8.43819 12.2113 8.31098 12.2254 8.19791C12.2254 7.83041 12.2254 7.44879 12.2254 7.0813C12.2254 6.72794 12.2254 6.37458 12.2254 6.02123C12.2254 6.00709 12.2113 5.99296 12.2113 5.97882C12.1409 5.89402 12.0423 5.86575 11.9578 5.93642C11.8732 6.00709 11.8732 6.10603 11.9155 6.19084C12.0282 6.48766 12.0845 6.79861 12.1549 7.10957C12.1549 7.47706 12.1549 7.84455 12.1549 8.19791C12.1409 8.32511 12.1268 8.46646 12.1127 8.59367C12.1127 8.62193 12.0986 8.63607 12.0986 8.66434C12.0423 8.72087 12.0845 8.84808 11.9578 8.86222C11.6761 8.90462 11.6056 8.86222 11.5916 8.57953C11.5916 8.5654 11.5916 8.55126 11.5775 8.53713C11.5775 8.50886 11.5775 8.49473 11.5775 8.46646C11.5916 8.36752 11.6056 8.25444 11.5493 8.1555C11.5493 8.09897 11.5352 8.05656 11.5352 8.00003C11.507 7.71734 11.4648 7.42052 11.3521 7.15197C11.3521 7.1237 11.338 7.09543 11.338 7.0813C11.2958 6.86928 11.2394 6.6714 11.1409 6.48766C11.1409 6.47352 11.1409 6.47352 11.1268 6.45939C11.1268 6.43112 11.1268 6.40285 11.0986 6.37458C10.9014 5.90815 10.662 5.48412 10.2676 5.15904C10.2254 5.07423 10.1831 5.07423 10.1409 5.15904C10.1127 5.1873 10.0845 5.21557 10.0563 5.24384C10.0282 5.25798 10.0141 5.27211 10.0141 5.31451C9.97184 5.35692 9.94367 5.39932 9.92958 5.45586C9.87325 5.49826 9.81691 5.5548 9.92958 5.5972C9.94367 5.61133 9.97184 5.62547 9.98592 5.62547C10 5.6396 10.0282 5.65374 10.0423 5.66787C10.0986 5.71027 10.1549 5.76681 10.2113 5.80921C10.2254 5.82335 10.2254 5.82335 10.2394 5.83748C10.2535 5.85162 10.2676 5.86575 10.2958 5.89402C10.3099 5.90815 10.3099 5.90815 10.3239 5.92229C10.338 5.93642 10.3521 5.95056 10.3662 5.96469C10.507 6.1767 10.6197 6.41699 10.7042 6.65727C10.7042 6.6714 10.7042 6.68554 10.7042 6.69967C10.7042 6.72794 10.7042 6.75621 10.7324 6.78448C10.7324 6.79861 10.7324 6.81275 10.7465 6.81275C10.7747 6.99649 10.8028 7.1661 10.831 7.34985C10.831 7.44879 10.831 7.56186 10.831 7.6608C10.7887 7.77388 10.7887 7.88695 10.8028 8.00003C10.8028 8.02829 10.8028 8.05656 10.7887 8.0707C10.7465 8.1555 10.7183 8.24031 10.7183 8.33925C10.6901 8.38165 10.662 8.43819 10.6761 8.48059C10.6338 8.59367 10.5775 8.72087 10.5352 8.83395C10.5211 8.84808 10.507 8.86222 10.493 8.87635C10.0141 8.87635 9.53522 8.87635 9.04226 8.87635C8.94367 8.87635 8.87325 8.84808 8.80282 8.80568C8.76057 8.76328 8.7324 8.72087 8.69015 8.67847C8.5493 8.48059 8.38029 8.31098 8.19719 8.14137C8.19719 8.09897 8.16902 8.0707 8.12677 8.05656C8.0986 8.00003 8.05634 7.95762 8.00001 7.91522C7.85916 7.74561 7.7324 7.576 7.56339 7.43465C7.5493 7.39225 7.52113 7.34985 7.47888 7.33572C7.22536 7.09543 7.07043 6.84102 7.2817 6.48766C7.2817 6.47352 7.29578 6.45939 7.29578 6.44526C7.30986 6.44526 7.32395 6.43112 7.30986 6.40285C7.30986 6.38872 7.32395 6.37458 7.32395 6.36045C7.38029 6.30391 7.42254 6.24738 7.43663 6.16257C7.45071 6.16257 7.45071 6.14844 7.45071 6.14844C7.49296 6.1343 7.50705 6.10603 7.52113 6.0495C7.66198 5.90815 7.80282 5.76681 7.94367 5.62547C7.97184 5.62547 8.00001 5.61133 8.00001 5.58306C8.02817 5.51239 8.12677 5.52653 8.16902 5.46999C8.1831 5.45586 8.19719 5.45586 8.21127 5.44172C8.35212 5.39932 8.47888 5.35692 8.61972 5.31451C8.64789 5.31451 8.67606 5.30038 8.69015 5.30038C8.98592 5.30038 9.26761 5.30038 9.5493 5.38518C9.59156 5.45586 9.61972 5.39932 9.63381 5.31451Z" fill="#434343"/>
<path d="M15.5916 11.0249C15.5071 10.9825 15.4225 10.9542 15.338 10.9118C15.2254 10.7846 15.1409 10.6574 15.0845 10.5019C15.0845 10.4595 15.0704 10.4312 15.0704 10.3888C15.0986 10.3323 15.0845 10.2899 15.0704 10.2334C15.0704 10.1909 15.0845 10.1627 15.0845 10.1203C15.1549 9.9648 15.2113 9.80932 15.3099 9.65384C15.4366 9.54077 15.5634 9.41356 15.662 9.27222C15.7747 9.17328 15.9014 9.06021 15.9718 8.933C16.0986 8.84819 16.1831 8.73512 16.2676 8.62204C16.3944 8.50897 16.5352 8.39589 16.6197 8.24042C16.7183 8.16975 16.8028 8.08494 16.8592 7.97187C17.0141 7.84466 17.1409 7.68918 17.2535 7.5337C17.338 7.47717 17.4085 7.40649 17.4648 7.30756C17.6197 7.16621 17.7747 7.01074 17.9014 6.84112C17.9578 6.78459 18.0141 6.74218 18.0564 6.68565C18.1972 6.61498 18.338 6.55844 18.4789 6.48777C18.5071 6.48777 18.5352 6.48777 18.5634 6.48777H18.5775L18.5916 6.47363C18.6902 6.48777 18.7887 6.51604 18.8873 6.53017C18.9014 6.5443 18.9155 6.5443 18.9296 6.55844C18.9578 6.57257 18.9718 6.58671 19 6.60084C19.0141 6.65738 19.0564 6.69978 19.1127 6.72805C19.1549 6.81286 19.1831 6.89766 19.2254 6.98247C19.2113 7.01074 19.2113 7.039 19.2394 7.05314C19.2394 7.12381 19.2535 7.18035 19.2535 7.25102C19.2535 7.29342 19.2394 7.33582 19.2394 7.37823C19.1831 7.50543 19.1409 7.63264 19.0845 7.75985C19.0704 7.78812 19.0564 7.80225 19.0423 7.83052C19 7.84466 18.9718 7.87293 18.9718 7.91533C18.7747 8.08494 18.5775 8.26869 18.4366 8.49483C18.2817 8.63618 18.1127 8.76339 18.0141 8.96127C17.9578 8.98953 17.9155 9.03194 17.9014 9.08847C17.6056 9.35703 17.338 9.63971 17.0986 9.9648C17.0423 9.99307 17 10.0355 16.9859 10.092C16.8169 10.2334 16.6479 10.3888 16.5211 10.5867C16.5071 10.5867 16.5071 10.6008 16.5071 10.6008C16.3944 10.6574 16.324 10.7563 16.2535 10.8553C16.0704 10.9683 15.831 11.0249 15.5916 11.0249Z" fill="#434343"/>
<path d="M6.18311 9.22982C6.05635 9.01781 5.85917 8.86233 5.69015 8.66445C5.50706 8.4383 5.30987 8.24042 5.11269 8.02841C4.90142 7.81639 4.76058 7.56198 4.71832 7.26516C4.71832 6.75632 5.05635 6.3747 5.60565 6.51604C5.91551 6.61498 6.0986 6.88353 6.30987 7.10968C6.36621 7.16622 6.42255 7.20862 6.47889 7.26516C6.57748 7.42063 6.69015 7.54784 6.831 7.64678C6.90142 7.73159 6.97184 7.84466 7.07044 7.9012C7.18311 8.07081 7.30987 8.22629 7.47889 8.33936C7.47889 8.3535 7.47889 8.35349 7.49297 8.36763C7.60565 8.56551 7.78875 8.70685 7.94368 8.86233C7.97184 8.96127 8.04227 9.01781 8.12677 9.06021C8.18311 9.14501 8.23945 9.22982 8.33804 9.27222C8.35213 9.28636 8.36621 9.30049 8.36621 9.31463C8.45072 9.48424 8.60565 9.61145 8.73241 9.75279C8.74649 9.78106 8.76058 9.82346 8.78875 9.85173C8.87325 10.092 8.90142 10.3323 8.84508 10.5867C8.831 10.6291 8.80283 10.6856 8.78875 10.7281C8.59156 10.9683 8.33804 11.0531 8.02818 10.9825C8.00001 10.9683 7.95776 10.9683 7.92959 10.9542C7.91551 10.9118 7.88734 10.8977 7.831 10.8977C7.78875 10.8694 7.73241 10.8411 7.69015 10.7987C7.67607 10.7563 7.6479 10.7281 7.60565 10.7281C7.59156 10.7139 7.57748 10.6998 7.56339 10.6857C7.49297 10.5726 7.40846 10.4595 7.29579 10.3888C7.18311 10.2334 7.04227 10.092 6.90142 9.9648C6.85917 9.88 6.80283 9.82346 6.71832 9.76692C6.56339 9.59731 6.43663 9.3853 6.22537 9.25809C6.22537 9.27222 6.22537 9.24395 6.18311 9.22982Z" fill="#434343"/>
</g>
<defs>
<clipPath id="clip0_298_16218">
<rect width="16" height="16" fill="white" transform="translate(4 4)"/>
</clipPath>
</defs>
</svg>
