<svg width="20" height="21" viewBox="0 0 20 21" fill="none" xmlns="http://www.w3.org/2000/svg">
<g clip-path="url(#clip0_310_16395)">
<path d="M19.9344 10.361C19.9344 12.1995 19.9344 14.0249 19.9344 15.8633C19.9344 16.0866 19.8556 16.1916 19.6586 16.2836C17.3474 17.3341 15.0361 18.3978 12.7249 19.4484C11.8713 19.8423 11.0178 20.2232 10.1642 20.6171C10.046 20.6696 9.9278 20.6696 9.80961 20.6171C7.68223 19.6453 5.56798 18.6736 3.4406 17.7018C2.40318 17.2291 1.36575 16.7432 0.315191 16.2836C0.131343 16.2048 0.0525513 16.0866 0.0525513 15.8765C0.0525513 12.1995 0.0525513 8.52256 0.0525513 4.8456C0.0525513 4.64862 0.118211 4.54357 0.288927 4.46478C2.32438 3.54554 4.33358 2.6263 6.34277 1.70706C7.49838 1.18178 8.65399 0.656504 9.80961 0.118093C9.94093 0.0524327 10.0591 0.0524327 10.1904 0.118093C12.1996 1.03733 14.1957 1.95657 16.2049 2.87581C17.3605 3.40109 18.5292 3.9395 19.6849 4.46478C19.8687 4.54357 19.9344 4.64862 19.9344 4.8456C19.9344 6.68408 19.9344 8.52256 19.9344 10.361ZM9.74395 14.6552C9.74395 12.9218 9.74395 11.2015 9.74395 9.46806C9.74395 9.363 9.71768 9.29735 9.61263 9.24482C8.86411 8.91652 8.12872 8.56195 7.39333 8.22052C5.17402 7.22249 2.95472 6.21133 0.748546 5.20017C0.564698 5.12138 0.564698 5.12138 0.564698 5.33149C0.564698 7.40634 0.564698 9.49432 0.564698 11.5692C0.564698 12.948 0.564698 14.3138 0.564698 15.6926C0.564698 15.7714 0.564698 15.8371 0.669754 15.8896C2.04861 16.5199 3.41434 17.1503 4.79319 17.7675C6.3953 18.5029 7.9974 19.2251 9.5995 19.9605C9.75708 20.0262 9.75708 20.0393 9.75708 19.8555C9.74395 18.122 9.74395 16.3886 9.74395 14.6552ZM10.2692 20.013C10.2955 20.013 10.3086 19.9999 10.3349 19.9999C11.8582 19.3039 13.3815 18.6079 14.9048 17.9119C16.3756 17.2422 17.8332 16.5725 19.304 15.9027C19.4091 15.8502 19.4353 15.7977 19.4353 15.6926C19.4353 12.2389 19.4353 8.77207 19.4353 5.31836C19.4353 5.13451 19.4353 5.13451 19.2646 5.2133C18.3717 5.62039 17.4656 6.04061 16.5726 6.44771C16.4413 6.50023 16.4019 6.57903 16.4019 6.71034C16.415 7.41947 16.4019 8.14173 16.4019 8.85086C16.4019 9.03471 16.3362 9.15289 16.1655 9.23169C15.4958 9.53372 14.826 9.82262 14.1826 10.1378C13.9462 10.256 13.7492 10.1115 13.7623 9.86202C13.7755 9.21855 13.7623 8.56195 13.7623 7.91849C13.7623 7.73464 13.7623 7.73464 13.5916 7.81343C12.5279 8.29931 11.4642 8.7852 10.4005 9.27108C10.2824 9.32361 10.2561 9.37614 10.2561 9.49432C10.2561 12.948 10.2561 16.4149 10.2561 19.8686C10.2561 19.8949 10.243 19.9605 10.2692 20.013ZM0.919262 4.72742C0.984922 4.75368 1.01119 4.77994 1.03745 4.79308C2.21933 5.33149 3.40121 5.88303 4.58308 6.42144C6.34277 7.20936 8.10245 8.01041 9.86214 8.82459C9.95406 8.86399 10.0329 8.87712 10.1379 8.82459C10.9127 8.47003 11.6875 8.11547 12.4623 7.7609C12.7643 7.61645 13.0663 7.48513 13.4078 7.32755C13.329 7.28815 13.2765 7.26189 13.2239 7.23562C12.1996 6.76287 11.1753 6.30325 10.1642 5.8305C8.26004 4.96379 6.3559 4.09708 4.4649 3.23037C4.35984 3.17784 4.28105 3.17784 4.17599 3.23037C3.42747 3.5718 2.67895 3.91323 1.91729 4.2678C1.60212 4.41225 1.27383 4.5567 0.919262 4.72742ZM19.0677 4.72742C18.9889 4.68802 18.9363 4.66176 18.8838 4.63549C18.3717 4.39912 17.8595 4.17587 17.3474 3.9395C14.9442 2.83641 12.5411 1.73333 10.1379 0.63024C10.046 0.590844 9.96719 0.577712 9.86214 0.63024C9.15301 0.958539 8.44388 1.28684 7.72162 1.60201C7.51151 1.69393 7.3014 1.79899 7.06503 1.90404C7.18321 1.95657 7.26201 2.0091 7.35393 2.04849C8.68026 2.65256 9.99346 3.25664 11.3198 3.86071C12.8825 4.58296 14.4583 5.29209 16.021 6.01435C16.113 6.05375 16.1917 6.05375 16.2837 6.01435C16.5069 5.90929 16.7433 5.80424 16.9797 5.69918C17.6625 5.37088 18.3585 5.05572 19.0677 4.72742ZM4.92451 2.88894C5.01644 2.92834 5.09523 2.96773 5.16089 3.00713C6.21145 3.47988 7.24887 3.96576 8.29943 4.43851C10.0329 5.22643 11.7794 6.01435 13.4997 6.82853C13.8543 6.99925 14.1563 7.03864 14.4977 6.82853C14.8129 6.64469 15.1675 6.51337 15.522 6.35578C15.4826 6.30325 15.4301 6.29012 15.3907 6.27699C13.9199 5.60726 12.4623 4.93753 10.9915 4.2678C9.52071 3.58493 8.03679 2.90207 6.56601 2.23234C6.50035 2.20608 6.44782 2.19295 6.38216 2.21921C5.90941 2.44245 5.43666 2.6657 4.92451 2.88894ZM15.9028 6.72348C15.3513 6.97298 14.8392 7.20936 14.3139 7.44574C14.2351 7.48513 14.2482 7.55079 14.2482 7.60332C14.2482 8.19426 14.2482 8.7852 14.2482 9.38927C14.2482 9.42866 14.2351 9.46806 14.2745 9.52059C14.7998 9.28421 15.3119 9.04784 15.8372 8.81146C15.8897 8.7852 15.9028 8.75893 15.9028 8.69327C15.9028 8.04981 15.9028 7.40634 15.9028 6.72348Z" fill="#434343" stroke="#434343" stroke-miterlimit="10"/>
</g>
<defs>
<clipPath id="clip0_310_16395">
<rect width="20" height="20.7223" fill="white"/>
</clipPath>
</defs>
</svg>
