<svg width="24" height="24" viewBox="0 0 24 24" fill="none" xmlns="http://www.w3.org/2000/svg">
<path d="M7.9026 9.30138C7.94832 9.47203 7.95121 9.6438 7.91126 9.8167C7.87132 9.9896 7.77574 10.1481 7.62454 10.2921C7.47247 10.4329 7.25799 10.5404 6.98109 10.6146L6.37256 10.7777L6.73749 12.1396L6.18691 12.2872L5.28752 8.93058L6.44663 8.62C6.70421 8.55098 6.93362 8.53782 7.13486 8.58053C7.33846 8.61915 7.504 8.70247 7.63149 8.83051C7.76219 8.95768 7.85256 9.11464 7.9026 9.30138ZM6.86074 10.1655C7.07002 10.1094 7.21367 10.0209 7.29168 9.89989C7.36883 9.77569 7.38412 9.62666 7.33753 9.45279C7.23918 9.08574 6.98233 8.95786 6.56698 9.06915L5.95845 9.23221L6.25221 10.3285L6.86074 10.1655ZM9.00028 9.09526C9.04454 8.93846 9.12275 8.80535 9.23492 8.69592C9.34944 8.58241 9.49847 8.50107 9.682 8.4519L9.8347 9.02179L9.69464 9.05932C9.47892 9.11712 9.32938 9.21586 9.24602 9.35553C9.16588 9.49433 9.16204 9.69896 9.23451 9.96942L9.6098 11.37L9.05922 11.5175L8.34618 8.85642L8.89675 8.70889L9.00028 9.09526ZM10.3854 7.93214C10.2856 7.95888 10.1928 7.9475 10.1071 7.89801C10.0213 7.84851 9.9651 7.77385 9.93835 7.67404C9.91161 7.57423 9.92298 7.48146 9.97248 7.39572C10.022 7.30999 10.0966 7.25375 10.1964 7.22701C10.293 7.20113 10.3842 7.21294 10.4699 7.26243C10.5557 7.31193 10.6119 7.38658 10.6386 7.4864C10.6654 7.58621 10.654 7.67898 10.6045 7.76471C10.555 7.85045 10.482 7.90625 10.3854 7.93214ZM10.7503 8.21223L11.4634 10.8734L10.9128 11.0209L10.1997 8.35976L10.7503 8.21223ZM11.6455 9.39586C11.5722 9.12218 11.5627 8.86765 11.6169 8.63225C11.6735 8.39277 11.7849 8.19037 11.9511 8.02505C12.1174 7.85973 12.3276 7.743 12.582 7.67484C12.904 7.58857 13.1903 7.59467 13.441 7.69314C13.6941 7.78753 13.8956 7.96647 14.0455 8.22996L13.4515 8.38914C13.3678 8.27007 13.263 8.18774 13.1369 8.14216C13.0108 8.09657 12.8672 8.09535 12.7062 8.13849C12.4808 8.19888 12.3221 8.32768 12.23 8.52491C12.1403 8.71805 12.1338 8.9579 12.2106 9.24445C12.2874 9.53101 12.4133 9.7371 12.5885 9.86271C12.7668 9.98747 12.9687 10.0196 13.1941 9.95926C13.5129 9.87385 13.6862 9.67728 13.7142 9.36955L14.3082 9.21038C14.3034 9.50154 14.2164 9.75609 14.047 9.97402C13.8768 10.1887 13.6339 10.3384 13.3183 10.4229C13.064 10.4911 12.8235 10.4951 12.5969 10.435C12.3694 10.3718 12.1718 10.2522 12.0038 10.0763C11.8383 9.89636 11.7189 9.66954 11.6455 9.39586ZM17.1471 7.85443C17.1738 7.95424 17.1915 8.04612 17.2002 8.13007L15.167 8.67488C15.24 8.88307 15.3646 9.03258 15.5408 9.12341C15.717 9.21424 15.9081 9.23205 16.1141 9.17683C16.4104 9.09746 16.5864 8.91743 16.6424 8.63672L17.2364 8.47755C17.2215 8.74382 17.1289 8.98431 16.9587 9.19901C16.7908 9.40964 16.5507 9.55679 16.2384 9.64048C15.984 9.70863 15.7403 9.71354 15.5073 9.6552C15.2766 9.59278 15.0757 9.47407 14.9046 9.29906C14.7358 9.11997 14.6147 8.89359 14.5414 8.61991C14.4681 8.34623 14.4585 8.09169 14.5128 7.8563C14.5694 7.61682 14.6824 7.41399 14.8519 7.24781C15.0245 7.08076 15.2412 6.9623 15.502 6.89242C15.7532 6.82513 15.9916 6.8199 16.2174 6.87675C16.4431 6.93359 16.6374 7.04716 16.8004 7.21745C16.9625 7.38453 17.0781 7.59685 17.1471 7.85443ZM16.5258 7.83456C16.4682 7.63258 16.3522 7.4894 16.1777 7.405C16.0033 7.32061 15.8114 7.30646 15.6021 7.36254C15.4122 7.41344 15.266 7.51818 15.1635 7.67676C15.0602 7.83213 15.0233 8.0163 15.0527 8.22926L16.5258 7.83456ZM5.07246 15.9556C4.98447 15.6272 4.98119 15.3123 5.06264 15.011C5.1473 14.7088 5.30063 14.4503 5.5226 14.2355C5.74694 14.0166 6.01526 13.8654 6.32758 13.7817C6.68497 13.6859 7.02584 13.6895 7.35019 13.7924C7.6769 13.8912 7.94617 14.0848 8.15802 14.3731L7.49636 14.5504C7.36197 14.3966 7.20586 14.2969 7.02802 14.2514C6.85018 14.2059 6.65983 14.2103 6.45699 14.2647C6.23483 14.3242 6.05018 14.4271 5.90306 14.5735C5.75594 14.7199 5.65749 14.8999 5.60772 15.1134C5.56116 15.326 5.5711 15.5563 5.63753 15.8042C5.70396 16.0521 5.81049 16.2565 5.95712 16.4174C6.10697 16.5774 6.28264 16.6856 6.48411 16.742C6.68472 16.7953 6.89611 16.7921 7.11827 16.7326C7.32112 16.6782 7.48816 16.5869 7.61942 16.4586C7.75067 16.3302 7.83604 16.1658 7.87553 15.9655L8.53718 15.7882C8.49789 16.1438 8.36147 16.4461 8.12794 16.695C7.89763 16.9431 7.60378 17.115 7.24639 17.2107C6.93085 17.2953 6.62327 17.3 6.32365 17.225C6.02316 17.1468 5.76071 16.998 5.53628 16.7786C5.31507 16.5584 5.16046 16.284 5.07246 15.9556ZM10.0948 13.5177C10.2976 13.4633 10.4896 13.4585 10.6707 13.5031C10.8549 13.5469 11.015 13.6421 11.1509 13.7886C11.29 13.9342 11.3919 14.1277 11.4566 14.3692L11.8772 15.9389L11.3314 16.0851L10.9328 14.5976C10.869 14.3593 10.7607 14.1933 10.6079 14.0997C10.4543 14.0028 10.2744 13.982 10.0684 14.0372C9.8623 14.0924 9.71535 14.2008 9.62751 14.3624C9.54202 14.5199 9.5312 14.7178 9.59504 14.956L9.99362 16.4435L9.44305 16.5911L8.48542 13.0172L9.03599 12.8696L9.3634 14.0915C9.42658 13.9538 9.5208 13.8354 9.64608 13.7363C9.77458 13.6363 9.92415 13.5634 10.0948 13.5177ZM14.6444 13.7014C14.6712 13.8012 14.6889 13.8931 14.6976 13.977L12.6643 14.5218C12.7374 14.73 12.862 14.8795 13.0381 14.9704C13.2143 15.0612 13.4054 15.079 13.6115 15.0238C13.9077 14.9444 14.0838 14.7644 14.1397 14.4837L14.7338 14.3245C14.7188 14.5908 14.6263 14.8313 14.456 15.046C14.2882 15.2566 14.0481 15.4038 13.7357 15.4874C13.4814 15.5556 13.2377 15.5605 13.0046 15.5022C12.774 15.4397 12.5731 15.321 12.4019 15.146C12.2332 14.9669 12.1121 14.7405 12.0388 14.4669C11.9654 14.1932 11.9559 13.9387 12.0102 13.7033C12.0668 13.4638 12.1798 13.2609 12.3492 13.0948C12.5219 12.9277 12.7386 12.8093 12.9994 12.7394C13.2505 12.6721 13.489 12.6669 13.7147 12.7237C13.9405 12.7806 14.1348 12.8941 14.2978 13.0644C14.4599 13.2315 14.5754 13.4438 14.6444 13.7014ZM14.0231 13.6815C13.9656 13.4795 13.8495 13.3364 13.6751 13.252C13.5006 13.1676 13.3088 13.1534 13.0995 13.2095C12.9095 13.2604 12.7633 13.3651 12.6609 13.5237C12.5576 13.6791 12.5206 13.8633 12.5501 14.0762L14.0231 13.6815ZM15.0196 13.6682C14.9462 13.3945 14.9367 13.14 14.991 12.9046C15.0476 12.6651 15.159 12.4627 15.3252 12.2974C15.4914 12.132 15.7017 12.0153 15.956 11.9472C16.278 11.8609 16.5644 11.867 16.815 11.9654C17.0681 12.0598 17.2696 12.2388 17.4196 12.5023L16.8255 12.6614C16.7419 12.5424 16.637 12.4601 16.5109 12.4145C16.3848 12.3689 16.2413 12.3677 16.0803 12.4108C15.8549 12.4712 15.6962 12.6 15.6041 12.7972C15.5143 12.9904 15.5078 13.2302 15.5846 13.5168C15.6614 13.8033 15.7874 14.0094 15.9625 14.135C16.1409 14.2598 16.3428 14.292 16.5681 14.2316C16.8869 14.1462 17.0603 13.9496 17.0882 13.6419L17.6823 13.4827C17.6775 13.7739 17.5904 14.0284 17.421 14.2463C17.2508 14.461 17.0079 14.6107 16.6924 14.6952C16.438 14.7634 16.1975 14.7674 15.9709 14.7073C15.7435 14.6441 15.5458 14.5245 15.3779 14.3486C15.2123 14.1687 15.0929 13.9419 15.0196 13.6682ZM19.1531 12.5658L20.7357 13.5652L19.992 13.7645L18.7 12.8839L19.0067 14.0285L18.4562 14.176L17.4985 10.6021L18.0491 10.4546L18.6056 12.5313L19.2596 11.1086L20.0227 10.9041L19.1531 12.5658Z" fill="#434343"/>
<circle cx="12" cy="12" r="11.25" stroke="#434343" stroke-width="1.5"/>
</svg>
