<svg width="24" height="24" viewBox="0 0 24 24" fill="none" xmlns="http://www.w3.org/2000/svg">
<path d="M5 6H19V6.5H5V6Z" stroke="black"/>
<path d="M21.5 9V12H2.5V9C2.5 8.17614 3.17614 7.5 4 7.5H20C20.8239 7.5 21.5 8.17614 21.5 9Z" stroke="black"/>
<path d="M20 17.5H4C3.17614 17.5 2.5 16.8239 2.5 16V12.5H21.5V16C21.5 16.8239 20.8239 17.5 20 17.5Z" stroke="black"/>
<path d="M20 9.5C20.2761 9.5 20.5 9.27614 20.5 9C20.5 8.72386 20.2761 8.5 20 8.5C19.7239 8.5 19.5 8.72386 19.5 9C19.5 9.27614 19.7239 9.5 20 9.5Z" fill="#00E676"/>
<path d="M5.75 2.25H18.25V6.75H5.75V2.25Z" stroke="black" stroke-width="0.5"/>
<path d="M18.75 15.5H5.25C4.85 15.5 4.5 15.15 4.5 14.75C4.5 14.35 4.85 14 5.25 14H18.75C19.15 14 19.5 14.35 19.5 14.75C19.5 15.15 19.15 15.5 18.75 15.5Z" fill="black"/>
<path d="M5.75 15.75H18.25V20.75H5.75V15.75Z" stroke="black" stroke-width="0.5"/>
<path d="M5.5 14.5H18.5V15.5H5.5V14.5Z" fill="black"/>
<path d="M8 16.5H16.5V17.5H8V16.5ZM8 18.5H14.5V19.5H8V18.5Z" fill="black"/>
</svg>
