<svg width="24" height="24" viewBox="0 0 24 24" fill="none" xmlns="http://www.w3.org/2000/svg">
<g clip-path="url(#clip0_313_16815)">
<path d="M17.8065 17.8065C17.8065 17.9785 17.8065 18.1506 17.8065 18.3226C17.8065 18.4516 17.7635 18.4946 17.6344 18.4946C17.5914 18.4946 17.5914 18.4946 17.5484 18.4946C17.2903 18.5377 17.1613 18.4516 17.0753 18.1936C16.8602 17.7635 16.4731 17.5484 16 17.5484C15.5269 17.5914 15.1828 17.8065 14.9678 18.2366C14.8817 18.4086 14.7957 18.4946 14.6237 18.4516C14.5377 18.4516 14.4946 18.4516 14.4086 18.4516C14.2796 18.4516 14.2366 18.4516 14.2366 18.6237C14.2366 18.7527 14.1075 18.8387 13.9785 18.8387C13.3334 18.8387 12.6452 18.8387 12 18.8387C11.828 18.8387 11.742 18.7527 11.742 18.5807C11.742 18.4516 11.6559 18.4516 11.5699 18.4516C11.3118 18.4516 11.0968 18.4516 10.8387 18.4516C10.7097 18.4516 10.6667 18.4086 10.6237 18.2796C10.4516 17.8925 10.1936 17.5914 9.72045 17.5054C9.16131 17.4194 8.60217 17.7205 8.43012 18.2796C8.38711 18.4086 8.30109 18.4516 8.17206 18.4516C8.04303 18.4516 7.95701 18.4086 7.914 18.2796C7.78496 17.8495 7.39787 17.5484 7.01077 17.5054C6.49464 17.5484 6.15056 17.7205 5.9355 18.1936C5.89249 18.2366 5.89249 18.3226 5.84948 18.3656C5.80647 18.5377 5.63443 18.4946 5.50539 18.4946C5.46238 18.4946 5.41937 18.3656 5.41937 18.2796C5.41937 17.8495 5.41937 17.4624 5.41937 17.0323C5.41937 16.9033 5.46238 16.8602 5.59142 16.8602C5.76346 16.9033 5.80647 16.7742 5.80647 16.6452C5.80647 15.3549 5.80647 14.0215 5.80647 12.7312C5.80647 12.4731 5.80647 12.4731 6.06453 12.4731C8.98926 12.4731 11.871 12.4731 14.7957 12.4731C14.9678 12.4731 15.0108 12.5162 15.0108 12.6882C15.0108 14.0215 15.0108 15.3119 15.0108 16.6452C15.0108 16.7312 15.0538 16.8172 15.0968 16.8602C15.2258 16.9033 15.3118 16.8602 15.2688 16.6882C15.2688 16.2581 15.2688 15.828 15.2688 15.3979C15.2688 14.6667 15.2688 13.9355 15.2688 13.2043C15.2688 13.1613 15.3118 13.0753 15.3118 13.0323C15.3549 13.0753 15.4409 13.0753 15.4839 13.1183C15.6559 13.2903 15.828 13.5054 16 13.6344C16.086 13.6774 16.1721 13.7635 16.2581 13.7635C16.5161 13.8065 16.7742 13.7635 17.0323 13.8065C17.2903 13.8495 17.4624 13.9785 17.5484 14.1936C17.6344 14.4946 17.7204 14.8387 17.8495 15.1398C17.8925 15.2258 17.9355 15.3549 18.0215 15.4409C18.2366 15.6129 18.3226 15.828 18.3226 16.1291C18.2796 16.4301 18.3226 16.7312 18.3226 17.0323C18.3226 17.2043 18.2796 17.4194 18.1936 17.5914C18.1506 17.6774 18.0645 17.7635 17.9785 17.8495C17.8495 17.8065 17.8495 17.8065 17.8065 17.8065ZM10.3656 16.8602C11.785 16.8602 13.1613 16.8602 14.5807 16.8602C14.8387 16.8602 14.8387 16.8602 14.8387 16.6022C14.8387 15.3549 14.8387 14.0645 14.8387 12.8172C14.8387 12.6452 14.7957 12.5592 14.5807 12.6022C11.742 12.6022 8.94625 12.6022 6.10754 12.6022C5.9355 12.6022 5.89249 12.6452 5.89249 12.8172C5.89249 14.0645 5.89249 15.3549 5.89249 16.6022C5.89249 16.7742 5.9355 16.8602 6.15056 16.8602C7.56991 16.8602 8.98926 16.8602 10.3656 16.8602ZM10.8387 16.9893C10.5377 16.9893 10.2366 16.9893 9.9355 16.9893C8.55916 16.9893 7.1398 16.9893 5.76346 16.9893C5.59142 16.9893 5.50539 17.0323 5.5484 17.2043C5.5484 17.5054 5.5484 17.7635 5.5484 18.0645C5.5484 18.1506 5.59142 18.2366 5.59142 18.3226C5.67744 18.2796 5.72045 18.1936 5.76346 18.1506C6.02152 17.6344 6.40862 17.4194 6.96776 17.4194C7.48389 17.4194 7.82797 17.7205 8.08604 18.1506C8.12905 18.2366 8.17206 18.2796 8.21507 18.3226C8.25808 18.2796 8.30109 18.1936 8.3441 18.1506C8.55916 17.7205 8.90324 17.4624 9.37636 17.4194C9.89249 17.3764 10.3226 17.5484 10.5807 17.9785C10.7527 18.2796 10.9678 18.3656 11.2688 18.3226C11.6989 18.3226 11.6989 18.3226 11.6989 17.8925C11.6989 17.6344 11.785 17.5484 12.043 17.5484C12.6022 17.5484 13.1613 17.5484 13.7204 17.5484C14.2796 17.5484 14.2366 17.5484 14.2796 18.1076C14.2796 18.1936 14.2366 18.3226 14.3656 18.3226C14.5807 18.3656 14.7527 18.3226 14.8387 18.1936C15.0968 17.6774 15.4839 17.4194 16.043 17.4194C16.6022 17.4194 16.9893 17.6774 17.2473 18.1936C17.3334 18.3656 17.4624 18.3226 17.5484 18.3226C17.6774 18.3226 17.6344 18.1936 17.6344 18.1076C17.6344 18.0645 17.6344 17.9785 17.6344 17.9355C17.6344 17.8065 17.5914 17.7635 17.4624 17.7635C17.3764 17.7635 17.2903 17.7205 17.2473 17.6774C16.8602 17.2043 16.3011 17.0323 15.6989 17.0323C14.1075 16.9893 12.4731 16.9893 10.8387 16.9893ZM18.0215 15.742C17.9785 15.699 17.9355 15.6559 17.8925 15.6129C17.7204 15.4839 17.6344 15.3119 17.5914 15.0968C17.5484 14.8387 17.4194 14.5807 17.3764 14.3226C17.2903 14.0645 17.1183 13.9355 16.8602 13.9355C16.4301 13.9355 16 13.9355 15.5699 13.8925C15.3979 13.8925 15.3549 13.9355 15.3549 14.1076C15.3549 14.8817 15.3549 15.6129 15.3549 16.3871C15.3549 16.8602 15.3118 16.7742 15.742 16.7742C16.3441 16.7742 16.8602 16.9033 17.2473 17.3764C17.4194 17.5914 17.6344 17.5484 17.8065 17.5054C17.8495 17.5054 17.8925 17.4624 17.8925 17.4194C17.9355 17.2473 17.9785 17.0323 18.0215 16.8602C18.0215 16.7742 17.9785 16.7312 17.8925 16.6882C17.8065 16.6882 17.6774 16.6022 17.6344 16.5592C17.5484 16.3871 17.6774 15.871 18.0215 15.742ZM12.6022 17.7205C12.4301 17.7205 12.2581 17.7205 12.086 17.7205C11.957 17.7205 11.914 17.7635 11.914 17.8925C11.914 18.1076 11.914 18.3226 11.914 18.5377C11.914 18.6667 11.957 18.7097 12.086 18.7097C12.4301 18.7097 12.7742 18.7097 13.1183 18.7097C13.2043 18.7097 13.2473 18.6667 13.2473 18.5807C13.2473 18.3656 13.2473 18.1076 13.2473 17.8925C13.2473 17.8065 13.2043 17.7635 13.1183 17.7635C12.9463 17.7205 12.7742 17.7205 12.6022 17.7205ZM13.8495 18.2366C13.8495 18.3656 13.8495 18.4516 13.8495 18.5807C13.8495 18.6237 13.9355 18.7097 13.9785 18.7097C14.0215 18.7097 14.1506 18.6237 14.1506 18.5807C14.1506 18.3226 14.1506 18.1076 14.1506 17.8495C14.1506 17.8065 14.0645 17.7205 13.9785 17.7205C13.9355 17.7205 13.8495 17.8065 13.8495 17.8495C13.8065 17.9785 13.8495 18.1076 13.8495 18.2366ZM13.6774 18.2366C13.6774 18.1076 13.6774 17.9785 13.6774 17.8495C13.6774 17.8065 13.5914 17.7205 13.5484 17.7205C13.5054 17.7205 13.4194 17.8065 13.4194 17.8495C13.4194 18.1076 13.4194 18.3226 13.4194 18.5807C13.4194 18.6237 13.5054 18.7097 13.5484 18.7097C13.6344 18.7527 13.6774 18.6667 13.6774 18.5807C13.6774 18.4516 13.6774 18.3226 13.6774 18.2366ZM18.1075 16.3011C18.1075 16.2151 18.1075 16.1721 18.1075 16.086C18.1075 16.043 18.0645 16 18.0215 15.914C17.9785 15.957 17.8495 15.957 17.8495 16C17.8495 16.1721 17.8495 16.3441 17.8495 16.5162C17.8495 16.5592 17.9785 16.6022 18.0215 16.6022C18.0645 16.6022 18.1075 16.5162 18.1075 16.4731C18.1075 16.4301 18.1075 16.3871 18.1075 16.3011ZM15.4409 13.3334C15.4409 13.3334 15.3979 13.3334 15.3979 13.3764C15.3979 13.5054 15.3979 13.6774 15.4409 13.8065C15.4839 13.8925 15.6559 13.8495 15.785 13.8495V13.8065C15.6989 13.5914 15.5699 13.4624 15.4409 13.3334Z" fill="#434343" stroke="#434343" stroke-width="0.2558" stroke-miterlimit="10"/>
<path d="M9.41938 8.00005C9.41938 8.08607 9.41938 8.08607 9.41938 8.12909C9.54841 8.47317 9.46239 8.77425 9.33336 9.11833C9.03228 9.84952 8.77422 10.6237 8.51615 11.3979C8.51615 11.4409 8.51615 11.4409 8.47314 11.4839C8.43013 11.5269 8.38712 11.5699 8.34411 11.5699C8.34411 11.5269 8.3011 11.4839 8.3011 11.4409C8.38712 11.2259 8.47314 11.0108 8.51615 10.7958C8.55916 10.6667 8.55916 10.5377 8.51615 10.4087C8.47314 10.1076 8.38712 9.76349 8.3011 9.46242C8.3011 9.41941 8.21508 9.3764 8.17207 9.33339C8.12905 9.3764 8.08604 9.41941 8.04303 9.46242C7.95701 9.8065 7.87099 10.1936 7.78497 10.5377C7.78497 10.6237 7.78497 10.7097 7.82798 10.7958C7.914 11.0108 8.00002 11.2259 8.04303 11.4409C8.04303 11.4839 8.04303 11.5269 8.04303 11.5699C8.00002 11.5269 7.95701 11.5269 7.914 11.4839C7.87099 11.2689 7.82798 11.0538 7.74196 10.8818C7.5269 10.2366 7.26884 9.54844 7.01077 8.90328C6.96776 8.68822 6.92475 8.51618 7.01077 8.30113C7.01077 8.21511 7.01077 8.12909 7.05379 8.00005C6.79572 8.1721 6.53766 8.30113 6.3226 8.43016C6.23658 8.47317 6.10755 8.55919 6.02153 8.6022C5.8925 8.64521 5.84948 8.73124 5.84948 8.86027C5.84948 9.03231 5.8925 9.11833 6.06454 9.07532C6.10755 9.07532 6.15056 9.11833 6.19357 9.11833C6.19357 9.16134 6.19357 9.20435 6.15056 9.24736C5.97852 9.50543 5.97852 9.50543 6.19357 9.76349C6.62368 10.2796 7.0968 10.8388 7.5269 11.3979C7.56991 11.4409 7.56991 11.5269 7.56991 11.5699C7.5269 11.5269 7.44088 11.5269 7.39787 11.4839C6.88174 10.8818 6.36561 10.2366 5.84948 9.63446C5.72045 9.50543 5.80647 9.41941 5.8925 9.29038C5.54841 9.24736 5.76346 8.94629 5.67744 8.77425C5.1183 8.73124 4.68819 9.16134 4.68819 9.67747C4.68819 10.2366 4.68819 10.7958 4.68819 11.3549C4.68819 11.4409 4.68819 11.4839 4.68819 11.5699H4.64518C4.64518 11.5269 4.60217 11.4839 4.60217 11.4409C4.60217 10.7958 4.60217 10.1936 4.60217 9.54844C4.60217 9.20435 4.94626 8.77425 5.29034 8.68822C5.72045 8.6022 6.10755 8.38715 6.49465 8.1721C6.62368 8.08607 6.79572 7.95704 6.96776 7.87102C7.0968 7.82801 7.13981 7.69898 7.13981 7.56995C7.0968 7.3979 7.0968 7.18285 6.88174 7.05382C6.53766 6.83876 6.49465 6.36564 6.79572 6.06457C6.83873 6.02156 6.83873 5.93554 6.83873 5.89253C6.83873 5.67747 6.79572 5.41941 6.75271 5.20435C6.75271 4.90328 6.88174 4.68823 7.13981 4.51618C7.22583 4.47317 7.26884 4.43016 7.35486 4.34414C7.48389 4.1721 7.65594 4.08607 7.82798 4.04306C8.25809 4.00005 8.68819 4.04306 9.1183 4.25812C9.59142 4.51618 9.80647 4.90328 9.80647 5.41941C9.80647 5.59145 9.76346 5.72048 9.76346 5.89253C9.76346 5.97855 9.76346 6.10758 9.80647 6.15059C9.93551 6.45167 9.84948 6.83876 9.59142 7.01081C9.41938 7.13984 9.29034 7.44091 9.33336 7.61296C9.33336 7.65597 9.41938 7.74199 9.46239 7.785C9.84948 8.04306 10.2796 8.25812 10.6667 8.51618C10.7957 8.6022 10.9678 8.6022 11.0968 8.64521C11.2688 8.73124 11.4839 8.77425 11.6559 8.90328C11.914 9.07532 12.086 9.29038 12.043 9.63446C12 10.1936 12.043 10.7527 12.043 11.3119C12.043 11.3549 12.043 11.4409 12.043 11.4839C12.043 11.5269 12 11.5269 12 11.5269C11.957 11.5269 11.957 11.4839 11.957 11.4839C11.957 11.4409 11.957 11.3979 11.957 11.3549C11.957 10.7958 11.957 10.1936 11.957 9.63446C11.957 9.41941 11.871 9.24736 11.6989 9.07532C11.4409 8.86027 11.1398 8.77425 10.7957 8.73124C10.7957 8.86027 10.7957 8.94629 10.7957 9.03231C10.7957 9.16134 10.7527 9.24736 10.6237 9.20435C10.6237 9.24736 10.6237 9.29038 10.6667 9.29038C10.7957 9.41941 10.7527 9.50543 10.6667 9.59145C10.1936 10.1076 9.76346 10.6667 9.29034 11.1828C9.24733 11.2689 9.20432 11.3549 9.1183 11.3979C9.07529 11.4409 9.03228 11.4409 8.94626 11.4839C8.94626 11.4409 8.94626 11.3549 8.98927 11.3119C9.29035 10.9678 9.54841 10.5807 9.84948 10.2366C10.0645 9.97855 10.2796 9.76349 10.4946 9.54844C10.5807 9.46242 10.6237 9.3764 10.4946 9.29038C10.4516 9.24736 10.4516 9.24736 10.4086 9.20435C10.3656 9.16134 10.3656 9.11833 10.3656 9.07532C10.4086 9.07532 10.4516 9.03231 10.4946 9.03231C10.5807 8.9893 10.6667 8.9893 10.6667 8.94629C10.6667 8.81726 10.6667 8.64521 10.5807 8.6022C10.1936 8.43016 9.80647 8.21511 9.41938 8.00005ZM9.37637 6.70973C9.07529 6.70973 8.81723 6.70973 8.55916 6.70973C8.43013 6.70973 8.34411 6.66672 8.3011 6.53769C8.3011 6.49468 8.21508 6.45167 8.17207 6.40866C8.17207 6.49468 8.12905 6.53769 8.08604 6.5807C8.04303 6.70973 7.95701 6.75274 7.82798 6.75274C7.56991 6.75274 7.31185 6.75274 7.05379 6.75274C7.13981 7.22586 7.31185 7.69898 7.69895 8.00005C8.04303 8.25812 8.38712 8.25812 8.7312 8.00005C9.1183 7.65597 9.29034 7.22586 9.37637 6.70973ZM9.5054 5.97855C9.54841 5.97855 9.54841 5.97855 9.59142 5.93554C9.59142 5.76349 9.63443 5.59145 9.63443 5.41941C9.63443 4.94629 9.41938 4.55919 8.98927 4.34414C8.64518 4.21511 8.25809 4.1721 7.87099 4.21511C7.69895 4.21511 7.5269 4.34414 7.44088 4.47317C7.39787 4.55919 7.35486 4.6022 7.26884 4.64521C6.92475 4.81726 6.79572 5.29038 7.01077 5.63446C7.18282 5.46242 7.31185 5.29038 7.44088 5.07532C7.5269 4.94629 7.56991 4.90328 7.69895 4.9893C8.04303 5.16134 8.43013 5.20435 8.81723 5.20435C9.16131 5.20435 9.16131 5.20435 9.24733 5.50543C9.33336 5.63446 9.41938 5.8065 9.5054 5.97855ZM7.05379 6.02156C7.13981 6.02156 7.22583 6.02156 7.31185 6.02156C7.65594 6.02156 8.00002 6.02156 8.21508 6.32263C8.47314 5.93554 8.90325 6.06457 9.29034 6.02156C9.20432 5.84952 9.16131 5.67747 9.1183 5.50543C9.07529 5.33339 9.03228 5.29038 8.90325 5.29038C8.60217 5.29038 8.3011 5.29038 8.00002 5.20435C7.74196 5.11833 7.56991 5.16134 7.44088 5.3764C7.26884 5.59145 7.13981 5.76349 7.05379 6.02156ZM9.16131 7.74199C8.90325 8.04306 8.64518 8.30113 8.21508 8.30113C7.82798 8.30113 7.5269 8.04306 7.26884 7.74199C7.26884 8.08607 7.82798 8.55919 8.21508 8.6022C8.55916 8.6022 9.16131 8.08607 9.16131 7.74199ZM7.69895 10.2796H7.74196C7.82798 9.93554 7.914 9.63446 7.95701 9.29038C7.95701 9.20435 7.78497 9.11833 7.69895 9.03231C7.61293 9.16134 7.39787 9.29038 7.44088 9.41941C7.44088 9.72048 7.61293 9.97855 7.69895 10.2796ZM8.68819 10.2366H8.7312C8.81723 10.0216 8.90325 9.8065 8.98927 9.59145C9.07529 9.41941 9.03228 9.24736 8.86024 9.16134C8.81723 9.11833 8.68819 9.07532 8.68819 9.07532C8.60217 9.16134 8.47314 9.24736 8.47314 9.33339C8.51615 9.63446 8.60217 9.93554 8.68819 10.2366ZM7.95701 8.68822C7.69895 8.51618 7.44088 8.34414 7.18282 8.21511C7.01077 8.55919 7.18282 8.86027 7.31185 9.16134C7.5269 8.9893 7.74196 8.81726 7.95701 8.68822ZM9.24733 8.12909C9.1183 8.47317 8.7312 8.47317 8.51615 8.68822C8.7312 8.86027 8.94626 8.9893 9.16131 9.16134C9.29034 8.81726 9.46239 8.51618 9.24733 8.12909ZM8.86024 6.5807C8.90325 6.5807 8.94626 6.5807 8.98927 6.5807C9.03228 6.5807 9.1183 6.5807 9.16131 6.5807C9.29034 6.5807 9.41938 6.40866 9.37637 6.27962C9.37637 6.23661 9.24733 6.15059 9.16131 6.15059C8.98927 6.15059 8.77422 6.1936 8.60217 6.1936C8.51615 6.1936 8.38712 6.23661 8.43013 6.36564C8.47314 6.49468 8.51615 6.5807 8.64518 6.5807C8.7312 6.5807 8.81723 6.5807 8.86024 6.5807ZM7.56991 6.5807C7.65594 6.5807 7.74196 6.5807 7.82798 6.5807C7.95701 6.5807 8.00002 6.45167 8.00002 6.36564C8.00002 6.32263 7.914 6.23661 7.87099 6.1936C7.65594 6.1936 7.39787 6.15059 7.18282 6.15059C7.13981 6.15059 7.05379 6.23661 7.05379 6.27962C7.01077 6.40866 7.13981 6.5807 7.31185 6.5807C7.39787 6.5807 7.48389 6.5807 7.56991 6.5807ZM7.914 8.94629C8.12905 9.29038 8.43013 9.20435 8.55916 8.94629C8.3011 8.73124 8.17207 8.73124 7.914 8.94629ZM6.92475 6.88177C6.88174 6.66672 6.88174 6.45167 6.83873 6.23661C6.66669 6.45167 6.7097 6.70973 6.92475 6.88177ZM9.59142 6.23661C9.59142 6.45167 9.54841 6.66672 9.54841 6.88177C9.76346 6.62371 9.76346 6.40866 9.59142 6.23661Z" fill="#434343" stroke="#434343" stroke-width="0.2558" stroke-miterlimit="10"/>
<path d="M15.957 11.742C15.1398 11.742 14.2796 11.742 13.4624 11.742C13.2903 11.742 13.2473 11.699 13.2473 11.5269C13.2473 10.2796 13.2473 9.03229 13.2473 7.78498C13.2473 7.65594 13.2043 7.52691 13.1183 7.44089C12.8602 7.01078 12.5591 6.62368 12.3011 6.19358C12.2581 6.15057 12.2581 6.06454 12.2581 6.02153C12.3011 6.06454 12.3871 6.06454 12.4301 6.15057C12.6882 6.53766 12.9462 6.88175 13.2043 7.26885C13.3333 7.44089 13.4624 7.52691 13.6774 7.52691C14.1075 7.52691 14.4946 7.52691 14.9247 7.52691C15.0968 7.52691 15.1398 7.4839 15.1398 7.31186C15.1398 7.26885 15.1398 7.22584 15.1398 7.18282C15.0968 7.01078 15.1828 6.92476 15.3548 6.92476C15.3978 6.92476 15.4839 6.92476 15.5269 6.88175C15.6129 6.79573 15.6129 6.70971 15.5269 6.62368C15.3548 6.45164 15.3548 6.40863 15.5269 6.23659C15.5269 6.15057 15.6129 6.10756 15.6559 6.02153C15.7419 5.93551 15.8279 5.93551 15.914 6.02153C16 6.06454 16.086 6.10756 16.172 6.15057C16.215 6.06454 16.2581 5.97852 16.2581 5.8925C16.2581 5.76347 16.3441 5.72046 16.4301 5.72046C16.5161 5.72046 16.5591 5.72046 16.6452 5.72046C16.9892 5.72046 16.9892 5.72046 17.0322 6.06455C17.0322 6.19358 17.1613 6.23659 17.2903 6.15057C17.3333 6.10756 17.3333 6.10756 17.3763 6.06455C17.4624 5.97852 17.5484 5.93551 17.6344 6.06455C17.7204 6.15057 17.8064 6.23659 17.8925 6.32261C18.0215 6.40863 17.9785 6.49465 17.8925 6.62368C17.8495 6.6667 17.8064 6.79573 17.8064 6.83874C17.8064 6.88175 17.9355 6.92476 18.0215 6.92476C18.1935 6.92476 18.2365 7.01078 18.2365 7.18282C18.2365 7.22584 18.2365 7.22584 18.2365 7.26885C18.2365 7.35487 18.2796 7.4839 18.3226 7.4839C18.4086 7.52691 18.5376 7.52691 18.6236 7.39788C18.8817 7.01078 19.1398 6.62368 19.3978 6.2796C19.4409 6.23659 19.4839 6.15057 19.5269 6.10756C19.5699 6.06455 19.6129 6.06454 19.6559 6.02153C19.6559 6.06454 19.6559 6.15057 19.6129 6.19358C19.3978 6.53766 19.1828 6.83874 18.9677 7.18282C18.7527 7.4839 18.6667 7.78498 18.6667 8.12906C18.6667 9.24734 18.6667 10.4086 18.6667 11.5269C18.6667 11.785 18.6667 11.785 18.4086 11.785C17.5914 11.742 16.7742 11.742 15.957 11.742ZM15.957 11.5699C16.7312 11.5699 17.5484 11.5699 18.3226 11.5699C18.4946 11.5699 18.5806 11.5269 18.5806 11.3549C18.5806 10.1936 18.5806 8.98928 18.5806 7.82799C18.5806 7.65594 18.5376 7.61293 18.3656 7.61293C16.7742 7.61293 15.1828 7.61293 13.5914 7.61293C13.4193 7.61293 13.3763 7.65594 13.3763 7.82799C13.3763 8.98928 13.3763 10.1936 13.3763 11.3549C13.3763 11.5269 13.4193 11.5699 13.5914 11.5699C14.3656 11.5699 15.1398 11.5699 15.957 11.5699ZM17.5484 6.10756L17.5054 6.15057C17.4624 6.15057 17.4624 6.19358 17.4193 6.19358C17.3333 6.2796 17.2903 6.36562 17.1183 6.32261C16.9892 6.23659 16.8602 6.15057 16.9032 5.97852C16.9032 5.93551 16.8172 5.8925 16.7742 5.84949C16.7312 5.84949 16.6452 5.84949 16.5591 5.84949C16.4301 5.84949 16.3871 5.8925 16.3871 6.02153C16.4301 6.19358 16.3011 6.23659 16.172 6.32261C16.043 6.40863 15.957 6.32261 15.871 6.23659C15.8279 6.19358 15.7849 6.19358 15.7419 6.15057C15.6559 6.23659 15.6129 6.2796 15.5269 6.32261C15.3978 6.40863 15.3978 6.49465 15.5269 6.58067C15.6559 6.6667 15.6129 6.79573 15.5699 6.88175C15.5269 7.01078 15.4409 7.05379 15.3118 7.05379C15.1828 7.05379 15.1828 7.13981 15.1828 7.26885C15.1828 7.39788 15.2258 7.4839 15.3548 7.4839C15.4839 7.4839 15.6129 7.4839 15.7419 7.4839C15.871 7.4839 15.914 7.44089 15.914 7.31186C15.914 6.92476 16.215 6.6667 16.6021 6.6667C16.9892 6.6667 17.2903 6.96777 17.2903 7.35487C17.2903 7.39788 17.2903 7.44089 17.2903 7.52691C17.5054 7.52691 17.7204 7.52691 17.8925 7.52691C18.0215 7.52691 18.0645 7.44089 18.0215 7.31186C18.0215 7.22584 18.0215 7.0968 17.8925 7.0968C17.7634 7.0968 17.6774 7.0968 17.6344 6.96777C17.5914 6.83874 17.5484 6.70971 17.6774 6.58067C17.7204 6.53766 17.7204 6.45164 17.7204 6.45164C17.7204 6.2796 17.6344 6.19358 17.5484 6.10756ZM16.6452 7.4839C16.7742 7.4839 16.9032 7.4839 17.0322 7.4839C17.1183 7.4839 17.2043 7.44089 17.2043 7.31186C17.2043 7.01078 16.9892 6.75272 16.6882 6.75272C16.3871 6.75272 16.129 7.01078 16.129 7.26885C16.129 7.39788 16.172 7.44089 16.3011 7.44089C16.4301 7.4839 16.5161 7.4839 16.6452 7.4839Z" fill="#434343" stroke="#434343" stroke-width="0.2558" stroke-miterlimit="10"/>
<path d="M7.39784 19.527C7.95698 19.527 8.47311 19.527 9.03225 19.527C8.68816 19.2259 8.51612 18.9248 8.60214 18.4947C8.64515 18.2797 8.77418 18.0646 8.98924 17.9356C9.33332 17.6775 9.84945 17.7205 10.1935 18.0216C10.4086 18.2366 10.4946 18.4947 10.4946 18.7958C10.4516 19.0969 10.3226 19.3119 10.1075 19.527C11.914 19.527 13.7204 19.527 15.6129 19.527C15.2688 19.2259 15.0968 18.9248 15.1828 18.4947C15.2258 18.2797 15.3548 18.1076 15.5269 17.9356C15.871 17.6345 16.4301 17.6775 16.7742 17.9786C17.1613 18.3657 17.1613 18.8388 16.6452 19.484C16.7312 19.484 16.7742 19.484 16.8602 19.484C17.2043 19.484 17.5914 19.484 17.9355 19.484C17.9785 19.484 18.0645 19.527 18.1075 19.527C18.0645 19.57 17.9785 19.613 17.9355 19.613C17.5054 19.613 17.1183 19.613 16.6882 19.613C13.0753 19.613 9.46236 19.613 5.84945 19.613C5.76343 19.613 5.67741 19.57 5.6344 19.527C5.72042 19.527 5.80644 19.484 5.84945 19.484C6.06451 19.484 6.23655 19.484 6.4516 19.4409C6.15053 19.1829 6.0215 18.8818 6.06451 18.4947C6.10752 18.2797 6.19354 18.0646 6.36558 17.8926C6.70967 17.5915 7.26881 17.5915 7.56988 17.8926C7.74193 18.1936 7.87096 18.4517 7.82795 18.7528C7.82795 19.0969 7.6559 19.3119 7.39784 19.527ZM6.88171 17.8926C6.4516 17.8926 6.10752 18.2797 6.10752 18.6667C6.10752 19.0969 6.49461 19.484 6.92472 19.484C7.35483 19.484 7.74193 19.0969 7.74193 18.6667C7.69892 18.2797 7.31182 17.8926 6.88171 17.8926ZM16.8172 18.7098C16.8172 18.2797 16.4731 17.8926 16.043 17.8926C15.6129 17.8926 15.2688 18.2366 15.2688 18.6667C15.2688 19.0969 15.6129 19.484 16.043 19.484C16.4731 19.527 16.8172 19.1399 16.8172 18.7098ZM9.50537 17.8926C9.07526 17.8926 8.68816 18.2797 8.68816 18.7098C8.68816 19.1399 9.07526 19.527 9.50537 19.484C9.93547 19.484 10.2796 19.1399 10.2796 18.7098C10.3226 18.2797 9.97849 17.9356 9.50537 17.8926Z" fill="#434343" stroke="#434343" stroke-width="0.2558" stroke-miterlimit="10"/>
<path d="M13.9785 4.51611C14.2796 4.51611 14.5376 4.64515 14.7957 4.77418C14.7527 4.81719 14.7097 4.8602 14.7097 4.8602C14.4516 4.77418 14.1936 4.68816 13.9355 4.60213C13.9355 4.60213 13.9785 4.55912 13.9785 4.51611Z" fill="#434343" stroke="#434343" stroke-width="0.2558" stroke-miterlimit="10"/>
<path d="M11.5699 4.17216C11.6989 4.17216 11.785 4.17216 11.914 4.17216C11.957 4.17216 11.957 4.21517 12 4.21517C11.957 4.21517 11.957 4.25818 11.914 4.25818C11.6989 4.25818 11.4839 4.30119 11.2688 4.30119C11.2258 4.30119 11.2258 4.25818 11.1828 4.21517C11.2258 4.17216 11.2258 4.12915 11.2688 4.12915C11.3548 4.17216 11.4409 4.17216 11.5699 4.17216Z" fill="#434343" stroke="#434343" stroke-width="0.2558" stroke-miterlimit="10"/>
<path d="M19.0108 14.4517C18.9247 14.3657 19.0968 13.7635 19.2258 13.6775C19.3118 13.8495 19.1828 14.3227 19.0108 14.4517Z" fill="#434343" stroke="#434343" stroke-width="0.2558" stroke-miterlimit="10"/>
<path d="M19.4839 12.5591C19.4839 12.6881 19.4409 12.8602 19.4409 13.0322C19.4409 13.0752 19.3979 13.0752 19.3548 13.1182C19.3548 13.0752 19.3118 13.0322 19.3118 12.9892C19.3118 12.8172 19.3548 12.6451 19.3548 12.4301C19.3548 12.387 19.3979 12.344 19.4409 12.301C19.4409 12.344 19.4839 12.387 19.4839 12.4301C19.4839 12.4731 19.4839 12.5161 19.4839 12.5591Z" fill="#434343" stroke="#434343" stroke-width="0.2558" stroke-miterlimit="10"/>
<path d="M13.4194 4.43014C13.2903 4.43014 13.1613 4.43014 13.0753 4.43014C12.9463 4.43014 12.8172 4.38713 12.6882 4.38713C12.6452 4.38713 12.6452 4.34412 12.6022 4.30111C12.6022 4.2581 12.6452 4.21509 12.6452 4.21509C12.9032 4.2581 13.1183 4.30111 13.3764 4.34412C13.3764 4.34412 13.3764 4.38713 13.4194 4.43014Z" fill="#434343" stroke="#434343" stroke-width="0.2558" stroke-miterlimit="10"/>
<path d="M19.4409 11.742C19.4409 11.699 19.3979 11.6559 19.3979 11.6559C19.3979 11.4839 19.3549 11.2688 19.3549 11.0968C19.3549 11.0538 19.3979 11.0108 19.3979 10.9678C19.4409 11.0108 19.4839 11.0538 19.4839 11.0968C19.4839 11.3119 19.5269 11.5269 19.5269 11.742C19.4839 11.742 19.4409 11.742 19.4409 11.742Z" fill="#434343" stroke="#434343" stroke-width="0.2558" stroke-miterlimit="10"/>
<path d="M4.51614 14.3228C4.55915 14.3658 4.60216 14.4088 4.60216 14.4518C4.68818 14.6238 4.73119 14.7529 4.7742 14.9249C4.7742 14.9679 4.7742 15.0109 4.73119 15.0539C4.68818 15.0539 4.64517 15.0109 4.64517 14.9679C4.55915 14.7959 4.51614 14.6238 4.43011 14.4518C4.47313 14.4518 4.51614 14.4088 4.51614 14.3228Z" fill="#434343" stroke="#434343" stroke-width="0.2558" stroke-miterlimit="10"/>
<path d="M4.3441 13.9355C4.30109 13.8495 4.30109 13.7635 4.25808 13.6775C4.21507 13.5484 4.21507 13.4194 4.17206 13.2904C4.17206 13.2474 4.21507 13.2474 4.21507 13.2043C4.21507 13.2043 4.25808 13.2043 4.25808 13.2474C4.30109 13.4624 4.3441 13.6775 4.3441 13.8925C4.38711 13.8925 4.38711 13.8925 4.3441 13.9355Z" fill="#434343" stroke="#434343" stroke-width="0.2558" stroke-miterlimit="10"/>
<path d="M18.7957 15.0108C18.8387 15.0968 18.7097 15.3979 18.6237 15.4409C18.5807 15.4409 18.5377 15.3979 18.5377 15.3979C18.5807 15.2688 18.6667 15.1398 18.7097 15.0108C18.7527 14.9678 18.7957 14.9678 18.7957 15.0108Z" fill="#434343" stroke="#434343" stroke-width="0.2558" stroke-miterlimit="10"/>
<path d="M5.29032 15.914C5.11828 15.871 4.90323 15.6129 4.94624 15.5269C4.94624 15.4839 5.03226 15.4839 5.03226 15.4839C5.11828 15.6129 5.2043 15.742 5.29032 15.914Z" fill="#434343" stroke="#434343" stroke-width="0.2558" stroke-miterlimit="10"/>
<path d="M15.7419 5.29049C15.6989 5.29049 15.6559 5.3335 15.6559 5.3335C15.5269 5.29049 15.4409 5.20447 15.3118 5.16146V5.07544C15.4409 5.11845 15.6129 5.20447 15.7419 5.24748C15.7419 5.29049 15.7419 5.29049 15.7419 5.29049Z" fill="#434343" stroke="#434343" stroke-width="0.2558" stroke-miterlimit="10"/>
<path d="M10.5807 4.38727C10.4516 4.43028 10.2796 4.43028 10.1506 4.47329L10.1075 4.38727C10.1506 4.30125 10.4946 4.30125 10.5807 4.38727Z" fill="#434343" stroke="#434343" stroke-width="0.2558" stroke-miterlimit="10"/>
<path d="M19.1398 9.9786L19.1828 9.89258C19.2259 9.89258 19.2689 9.93559 19.2689 9.93559C19.3119 10.0216 19.3119 10.1506 19.3549 10.2367C19.3549 10.2797 19.3119 10.2797 19.3119 10.3227C19.2689 10.3227 19.2259 10.2797 19.2259 10.2797C19.1828 10.1937 19.1398 10.1076 19.1398 9.9786Z" fill="#434343" stroke="#434343" stroke-width="0.2558" stroke-miterlimit="10"/>
<path d="M4.04303 12.4732C4.04303 12.3871 4.04303 12.3441 4.04303 12.3011C4.04303 12.2581 4.08604 12.2581 4.08604 12.2151C4.12905 12.2581 4.12905 12.2581 4.17206 12.3011C4.17206 12.3871 4.21507 12.4732 4.21507 12.6022C4.21507 12.6452 4.17206 12.6882 4.17206 12.6882C4.12905 12.6452 4.08604 12.6452 4.08604 12.6022C4.04303 12.5592 4.04303 12.5162 4.04303 12.4732Z" fill="#434343" stroke="#434343" stroke-width="0.2558" stroke-miterlimit="10"/>
<path d="M10.3656 16.8604C8.94628 16.8604 7.56994 16.8604 6.15058 16.8604C5.97854 16.8604 5.89252 16.8173 5.89252 16.6023C5.89252 15.355 5.89252 14.0647 5.89252 12.8173C5.93553 12.6453 5.97854 12.6023 6.15058 12.6023C8.98929 12.6023 11.785 12.6023 14.6237 12.6023C14.7957 12.6023 14.8818 12.6453 14.8818 12.8173C14.8818 14.0647 14.8818 15.355 14.8818 16.6023C14.8818 16.8604 14.8818 16.8604 14.6237 16.8604C13.2043 16.8604 11.785 16.8604 10.3656 16.8604ZM10.4947 13.4195C10.1076 13.4195 9.72047 13.4195 9.33338 13.4195C9.11832 13.4195 8.98929 13.5055 8.98929 13.7636C8.98929 14.4948 8.98929 15.226 8.98929 15.9571C8.98929 16.1722 9.11832 16.3012 9.33338 16.3012C10.1076 16.3012 10.8388 16.3012 11.6129 16.3012C11.828 16.3012 11.957 16.1722 11.957 15.9571C11.957 15.226 11.957 14.5378 11.957 13.8066C11.957 13.5915 11.871 13.4625 11.6129 13.4625C11.2689 13.4195 10.8818 13.4195 10.4947 13.4195Z" fill="white" stroke="#434343" stroke-width="0.2558" stroke-miterlimit="10"/>
<path d="M10.8387 16.9893C12.4732 16.9893 14.1076 16.9893 15.742 16.9893C16.3441 16.9893 16.8602 17.1613 17.2904 17.6344C17.3334 17.6774 17.4194 17.7204 17.5054 17.7204C17.6344 17.7204 17.6775 17.7635 17.6775 17.8925C17.6775 17.9355 17.6775 18.0215 17.6775 18.0645C17.6775 18.1505 17.7205 18.2796 17.5914 18.2796C17.4624 18.2796 17.3334 18.3226 17.2904 18.1505C17.0753 17.6344 16.6452 17.3764 16.0861 17.3764C15.5269 17.3764 15.0968 17.6344 14.8818 18.1505C14.8387 18.2796 14.6667 18.3226 14.4086 18.2796C14.2366 18.2366 14.3226 18.1505 14.3226 18.0645C14.3226 17.5054 14.3226 17.5054 13.7635 17.5054C13.2043 17.5054 12.6452 17.5054 12.0861 17.5054C11.828 17.5054 11.742 17.5914 11.742 17.8495C11.742 18.2796 11.742 18.2796 11.3119 18.2796C11.0108 18.3226 10.7957 18.2366 10.6237 17.9355C10.3656 17.4624 9.93552 17.2903 9.41939 17.3764C8.94627 17.4194 8.60218 17.6774 8.38713 18.1075C8.34412 18.1936 8.30111 18.2366 8.2581 18.2796C8.21509 18.2366 8.17208 18.1505 8.12907 18.1075C7.91401 17.6344 7.52691 17.3764 7.01079 17.3764C6.45165 17.3764 6.06455 17.5914 5.80648 18.1075C5.72046 18.1936 5.67745 18.2796 5.63444 18.3226C5.59143 18.2366 5.59143 18.1505 5.59143 18.0645C5.59143 17.7635 5.59143 17.5054 5.59143 17.2043C5.59143 17.0323 5.63444 16.9893 5.80648 16.9893C7.18283 16.9893 8.60218 16.9893 9.97853 16.9893C10.2796 16.9893 10.5377 16.9893 10.8387 16.9893Z" fill="white" stroke="#434343" stroke-width="0.2558" stroke-miterlimit="10"/>
<path d="M18.0215 15.742C17.7205 15.871 17.5484 16.3441 17.7205 16.6452C17.7635 16.7312 17.8925 16.7742 17.9785 16.7742C18.0645 16.8172 18.1076 16.8602 18.1076 16.9463C18.0645 17.1183 18.0215 17.3334 17.9785 17.5054C17.9785 17.5484 17.9355 17.5914 17.8925 17.5914C17.6775 17.5914 17.5054 17.6344 17.3334 17.4624C16.9463 16.9893 16.3871 16.8602 15.828 16.8602C15.3979 16.8602 15.4409 16.9463 15.4409 16.4731C15.4409 15.6989 15.4409 14.9678 15.4409 14.1936C15.4409 14.0215 15.4839 13.9785 15.6559 13.9785C16.0861 13.9785 16.5162 13.9785 16.9463 14.0215C17.2043 14.0215 17.3764 14.1506 17.4624 14.4086C17.5484 14.6667 17.6344 14.9248 17.6775 15.1828C17.7205 15.3979 17.8065 15.5699 17.9785 15.6989C17.9355 15.6559 17.9785 15.6989 18.0215 15.742ZM16.6452 15.742C16.8602 15.742 17.0323 15.742 17.2473 15.742C17.3764 15.742 17.4194 15.6989 17.3764 15.5269C17.2904 15.2258 17.2043 14.8817 17.1183 14.5807C17.0323 14.3226 16.8602 14.1936 16.6022 14.1936C16.3871 14.1936 16.1721 14.1936 15.957 14.1936C15.828 14.1936 15.785 14.2366 15.785 14.3656C15.785 14.7527 15.785 15.1828 15.785 15.5699C15.785 15.6989 15.871 15.742 15.957 15.742C16.2581 15.742 16.4731 15.742 16.6452 15.742Z" fill="white" stroke="#434343" stroke-width="0.2558" stroke-miterlimit="10"/>
<path d="M12.6022 17.7205C12.7742 17.7205 12.9463 17.7205 13.1183 17.7205C13.2043 17.7205 13.2473 17.7635 13.2473 17.8495C13.2473 18.0646 13.2473 18.3227 13.2473 18.5377C13.2473 18.6237 13.2043 18.6667 13.1183 18.6667C12.7742 18.6667 12.4301 18.6667 12.086 18.6667C11.957 18.6667 11.914 18.6237 11.914 18.4947C11.914 18.2796 11.914 18.0646 11.914 17.8495C11.914 17.7205 11.957 17.6775 12.086 17.6775C12.2581 17.7205 12.4301 17.7205 12.6022 17.7205Z" fill="white" stroke="#434343" stroke-width="0.2558" stroke-miterlimit="10"/>
<path d="M13.8495 18.2365C13.8495 18.1075 13.8495 18.0215 13.8495 17.8925C13.8495 17.8494 13.9355 17.7634 13.9785 17.7634C14.0215 17.7634 14.1506 17.8494 14.1506 17.8925C14.1506 18.1505 14.1506 18.3656 14.1506 18.6236C14.1506 18.6667 14.0646 18.7527 13.9785 18.7527C13.9355 18.7527 13.8495 18.6667 13.8495 18.6236C13.8065 18.4516 13.8495 18.3226 13.8495 18.2365Z" fill="white" stroke="#434343" stroke-width="0.2558" stroke-miterlimit="10"/>
<path d="M13.6774 18.2366C13.6774 18.3656 13.6774 18.4516 13.6774 18.5807C13.6774 18.6667 13.6344 18.7527 13.5484 18.7097C13.5054 18.7097 13.4194 18.6237 13.4194 18.5807C13.4194 18.3226 13.4194 18.1076 13.4194 17.8495C13.4194 17.8065 13.5054 17.7205 13.5484 17.7205C13.5914 17.7205 13.6774 17.8065 13.6774 17.8495C13.6774 17.9785 13.6774 18.1076 13.6774 18.2366Z" fill="white" stroke="#434343" stroke-width="0.2558" stroke-miterlimit="10"/>
<path d="M18.1076 16.3011C18.1076 16.3871 18.1076 16.4302 18.1076 16.5162C18.1076 16.5592 18.0646 16.6452 18.0215 16.6452C17.9785 16.6452 17.8495 16.6022 17.8495 16.5592C17.8495 16.3871 17.8065 16.2151 17.8495 16.0431C17.8495 16 17.9785 15.957 18.0215 15.957C18.0646 16 18.1076 16.0431 18.1076 16.1291C18.1076 16.1721 18.1076 16.2151 18.1076 16.3011Z" fill="white" stroke="#434343" stroke-width="0.2558" stroke-miterlimit="10"/>
<path d="M15.4409 13.3335C15.5699 13.4625 15.6989 13.5916 15.828 13.7636V13.8066C15.6989 13.8066 15.5269 13.8496 15.4839 13.7636C15.3979 13.6776 15.4409 13.5055 15.4409 13.3335Z" fill="white" stroke="#434343" stroke-width="0.2558" stroke-miterlimit="10"/>
<path d="M9.37635 6.70977C9.29033 7.18288 9.11829 7.656 8.73119 7.95708C8.38711 8.21514 8.04302 8.21514 7.69893 7.95708C7.31184 7.656 7.13979 7.2259 7.05377 6.70977C7.31184 6.70977 7.5699 6.70977 7.82797 6.70977C7.957 6.70977 8.04302 6.66676 8.08603 6.53772C8.12904 6.49471 8.17205 6.4517 8.21506 6.40869C8.25807 6.4517 8.30108 6.49471 8.34409 6.53772C8.38711 6.66676 8.47313 6.70977 8.60216 6.70977C8.86022 6.70977 9.11829 6.70977 9.37635 6.70977Z" fill="white" stroke="#434343" stroke-width="0.2558" stroke-miterlimit="10"/>
<path d="M9.5054 5.97866C9.41938 5.80662 9.33336 5.63458 9.29035 5.46253C9.16131 5.11845 9.20433 5.11845 8.86024 5.16146C8.47314 5.16146 8.08605 5.11845 7.74196 4.9464C7.61293 4.90339 7.52691 4.9464 7.44088 5.07544C7.31185 5.29049 7.18282 5.46253 7.01078 5.63458C6.79572 5.29049 6.92476 4.81737 7.26884 4.64533C7.35486 4.60232 7.39787 4.55931 7.44088 4.47328C7.52691 4.34425 7.69895 4.21522 7.87099 4.21522C8.25809 4.17221 8.60217 4.21522 8.98927 4.38726C9.41938 4.60232 9.63443 4.9464 9.63443 5.46253C9.63443 5.63458 9.59142 5.80662 9.59142 5.97866C9.54841 5.97866 9.54841 5.97866 9.5054 5.97866Z" fill="white" stroke="#434343" stroke-width="0.2558" stroke-miterlimit="10"/>
<path d="M7.05377 6.02158C7.13979 5.76352 7.26883 5.59148 7.39786 5.37642C7.5699 5.16137 7.69893 5.11836 7.957 5.20438C8.25807 5.2904 8.60216 5.2904 8.90323 5.2904C9.03227 5.2904 9.07528 5.33341 9.11829 5.46244C9.1613 5.63449 9.24732 5.80653 9.29033 5.97857C8.90323 6.02158 8.47313 5.93556 8.21506 6.27965C8.00001 5.97857 7.65592 6.02158 7.31184 6.02158C7.22581 5.97857 7.1828 6.02158 7.05377 6.02158Z" fill="white" stroke="#434343" stroke-width="0.2558" stroke-miterlimit="10"/>
<path d="M9.16133 7.74194C9.11832 8.12904 8.51617 8.64517 8.2151 8.60216C7.828 8.60216 7.26886 8.08603 7.26886 7.74194C7.56994 8.04302 7.828 8.30108 8.2151 8.30108C8.6452 8.30108 8.90327 8.04302 9.16133 7.74194Z" fill="white" stroke="#434343" stroke-width="0.2558" stroke-miterlimit="10"/>
<path d="M7.69896 10.2795C7.61294 9.97846 7.4409 9.7204 7.39789 9.41932C7.39789 9.29029 7.56993 9.16126 7.69896 9.03223C7.78499 9.11825 7.95703 9.20427 7.95703 9.29029C7.91402 9.63438 7.828 9.93545 7.74197 10.2795C7.74197 10.2795 7.74197 10.2795 7.69896 10.2795Z" fill="white" stroke="#434343" stroke-width="0.2558" stroke-miterlimit="10"/>
<path d="M8.6882 10.2365C8.60218 9.93545 8.51616 9.59137 8.47314 9.29029C8.47314 9.20427 8.60218 9.11825 8.6882 9.03223C8.73121 9.03223 8.81723 9.07524 8.86024 9.11825C8.98927 9.24728 9.0753 9.37631 8.98927 9.54836C8.90325 9.76341 8.81723 9.97846 8.73121 10.1935C8.73121 10.2365 8.6882 10.2365 8.6882 10.2365Z" fill="white" stroke="#434343" stroke-width="0.2558" stroke-miterlimit="10"/>
<path d="M7.95699 8.68821C7.74194 8.86025 7.52689 8.98928 7.31183 9.16132C7.1828 8.81724 7.01076 8.51616 7.1828 8.21509C7.44086 8.34412 7.69893 8.51616 7.95699 8.68821Z" fill="white" stroke="#434343" stroke-width="0.2558" stroke-miterlimit="10"/>
<path d="M9.24736 8.12915C9.46241 8.51625 9.29037 8.81732 9.16134 9.1184C8.94628 8.94635 8.73123 8.81732 8.51617 8.64528C8.73123 8.47324 9.07531 8.47324 9.24736 8.12915Z" fill="white" stroke="#434343" stroke-width="0.2558" stroke-miterlimit="10"/>
<path d="M8.86022 6.58074C8.7742 6.58074 8.73119 6.58074 8.64517 6.58074C8.47312 6.58074 8.43011 6.49472 8.43011 6.36569C8.3871 6.23666 8.51613 6.19365 8.60216 6.19365C8.81721 6.19365 8.98925 6.15063 9.20431 6.15063C9.29033 6.15063 9.41936 6.19365 9.41936 6.27967C9.46237 6.4087 9.33334 6.58074 9.20431 6.58074C9.1613 6.58074 9.07527 6.58074 9.03226 6.58074C8.98925 6.58074 8.94624 6.58074 8.86022 6.58074Z" fill="white" stroke="#434343" stroke-width="0.2558" stroke-miterlimit="10"/>
<path d="M7.56994 6.58074C7.48392 6.58074 7.39789 6.58074 7.31187 6.58074C7.13983 6.58074 7.0108 6.4087 7.05381 6.27967C7.05381 6.23666 7.13983 6.15063 7.18284 6.15063C7.39789 6.15063 7.65596 6.19365 7.87101 6.23666C7.91402 6.23666 8.00004 6.32268 8.00004 6.4087C8.00004 6.49472 7.95703 6.58074 7.828 6.58074C7.74198 6.58074 7.65596 6.58074 7.56994 6.58074Z" fill="white" stroke="#434343" stroke-width="0.2558" stroke-miterlimit="10"/>
<path d="M7.914 8.94617C8.17207 8.77413 8.3011 8.77413 8.55916 8.94617C8.43013 9.20424 8.12906 9.29026 7.914 8.94617Z" fill="white" stroke="#434343" stroke-width="0.2558" stroke-miterlimit="10"/>
<path d="M6.92472 6.88173C6.70967 6.70969 6.66666 6.45163 6.8387 6.23657C6.88171 6.45163 6.88171 6.66668 6.92472 6.88173Z" fill="white" stroke="#434343" stroke-width="0.2558" stroke-miterlimit="10"/>
<path d="M9.59141 6.23657C9.76345 6.40862 9.76345 6.66668 9.5484 6.88173C9.5484 6.62367 9.5484 6.45163 9.59141 6.23657Z" fill="white" stroke="#434343" stroke-width="0.2558" stroke-miterlimit="10"/>
<path d="M15.957 11.57C15.1828 11.57 14.3656 11.57 13.5914 11.57C13.4194 11.57 13.3763 11.527 13.3763 11.355C13.3763 10.1937 13.3763 8.98938 13.3763 7.82809C13.3763 7.65605 13.4194 7.61304 13.5914 7.61304C15.1828 7.61304 16.7742 7.61304 18.3656 7.61304C18.5376 7.61304 18.5806 7.65605 18.5806 7.82809C18.5806 8.98938 18.5806 10.1937 18.5806 11.355C18.5806 11.527 18.4946 11.57 18.3226 11.57C17.5054 11.57 16.7312 11.57 15.957 11.57ZM17.1613 8.86035C17.1183 8.81734 17.1183 8.77433 17.0753 8.73132C16.9892 8.6453 16.9462 8.60228 16.8602 8.51626C16.7742 8.38723 16.6452 8.38723 16.5161 8.51626C16.4731 8.55927 16.4301 8.55927 16.3441 8.55927C16.3011 8.55927 16.2581 8.47325 16.3011 8.43024C16.3011 8.21519 16.2151 8.17218 16.043 8.21519C15.957 8.21519 15.914 8.21519 15.828 8.21519C15.6559 8.21519 15.5699 8.2582 15.5699 8.47325C15.5699 8.51626 15.5269 8.55927 15.4839 8.60228C15.4409 8.60228 15.3978 8.60228 15.3548 8.55927C15.2258 8.38723 15.0968 8.43024 14.9677 8.60228C14.9247 8.6453 14.8817 8.68831 14.8387 8.73132C14.7097 8.81734 14.7097 8.94637 14.8387 9.0754C14.8817 9.11841 14.8817 9.20444 14.8817 9.24745C14.8817 9.29046 14.7957 9.33347 14.7527 9.33347C14.5376 9.33347 14.4946 9.41949 14.5376 9.59153C14.5376 9.63454 14.5376 9.72056 14.5376 9.76357C14.5376 9.93562 14.5806 10.0216 14.7957 10.0216C14.9247 10.0216 14.9677 10.1077 14.8817 10.1937C14.7097 10.3657 14.7957 10.4517 14.9247 10.5808C14.9677 10.6238 15.0108 10.6668 15.0538 10.7098C15.1398 10.7958 15.2258 10.8388 15.3548 10.7098C15.3978 10.6668 15.4839 10.6238 15.5269 10.6668C15.5699 10.6668 15.5699 10.7528 15.5699 10.8388C15.5699 11.0109 15.6559 11.0539 15.7849 11.0539C15.871 11.0539 15.957 11.0539 16.043 11.0539C16.2151 11.0539 16.3441 11.0109 16.3011 10.7958C16.3011 10.7528 16.3441 10.7098 16.3871 10.6668C16.4301 10.6668 16.4731 10.6668 16.5161 10.7098C16.6452 10.8819 16.7742 10.8388 16.9032 10.6668C16.9462 10.6238 16.9892 10.5378 17.0753 10.4948C17.2043 10.4087 17.2043 10.2797 17.0753 10.1937C17.0323 10.1507 16.9892 10.0647 17.0323 10.0216C17.0323 9.97863 17.1183 9.97863 17.1613 9.93562C17.2903 9.93562 17.3763 9.8496 17.3763 9.72056C17.3763 9.63454 17.3763 9.59153 17.3763 9.50551C17.3763 9.33347 17.3333 9.20444 17.1183 9.24745C17.0753 9.24745 17.0323 9.20444 16.9892 9.16142C16.9892 9.11841 16.9892 9.0754 17.0323 9.03239C17.0753 8.98938 17.1183 8.94637 17.1613 8.86035Z" fill="white" stroke="#434343" stroke-width="0.2558" stroke-miterlimit="10"/>
<path d="M17.5484 6.10747C17.6344 6.19349 17.7205 6.27951 17.7635 6.40855C17.7635 6.45156 17.7635 6.53758 17.7205 6.53758C17.5914 6.66661 17.5914 6.79564 17.6774 6.92468C17.7205 7.05371 17.8065 7.09672 17.9355 7.05371C18.1076 7.05371 18.0645 7.18274 18.0645 7.26876C18.0645 7.35478 18.0645 7.48382 17.9355 7.48382C17.7205 7.48382 17.5484 7.48382 17.3334 7.48382C17.3334 7.39779 17.3334 7.35478 17.3334 7.31177C17.3334 6.92468 17.0323 6.6236 16.6452 6.6236C16.2581 6.6236 15.957 6.88167 15.957 7.26876C15.957 7.39779 15.914 7.48382 15.785 7.44081C15.6559 7.44081 15.5269 7.44081 15.3979 7.44081C15.2688 7.44081 15.2258 7.39779 15.2258 7.22575C15.2258 7.09672 15.2258 6.96769 15.3979 7.0107C15.5269 7.0107 15.6129 6.96769 15.6559 6.83865C15.6989 6.70962 15.742 6.6236 15.6129 6.53758C15.4839 6.45156 15.5269 6.36554 15.6129 6.27951C15.6989 6.2365 15.742 6.15048 15.828 6.10747C15.871 6.15048 15.914 6.15048 15.957 6.19349C16.043 6.27951 16.086 6.32253 16.2581 6.27951C16.3871 6.2365 16.5162 6.15048 16.4731 5.97844C16.4731 5.84941 16.5162 5.8064 16.6452 5.8064C16.7312 5.8064 16.7742 5.8064 16.8602 5.8064C16.9032 5.8064 16.9893 5.89242 16.9893 5.93543C16.9893 6.15048 17.1183 6.19349 17.2473 6.27951C17.3764 6.36554 17.4624 6.2365 17.5484 6.15048C17.4624 6.15048 17.5054 6.15048 17.5054 6.15048C17.5484 6.10747 17.5484 6.10747 17.5484 6.10747Z" fill="white" stroke="#434343" stroke-width="0.2558" stroke-miterlimit="10"/>
<path d="M16.6452 7.48389C16.5162 7.48389 16.3871 7.48389 16.2581 7.48389C16.1291 7.48389 16.0861 7.44088 16.0861 7.31185C16.0861 7.01078 16.3441 6.75271 16.6452 6.79572C16.9463 6.79572 17.1613 7.05379 17.1613 7.35486C17.1613 7.48389 17.1183 7.52691 16.9893 7.52691C16.9033 7.48389 16.7742 7.48389 16.6452 7.48389Z" fill="white" stroke="#434343" stroke-width="0.2558" stroke-miterlimit="10"/>
<path d="M6.88172 17.8926C7.31183 17.8926 7.69892 18.2797 7.69892 18.6668C7.69892 19.0969 7.31183 19.484 6.88172 19.484C6.45161 19.484 6.06451 19.0969 6.06451 18.6668C6.10752 18.2797 6.49462 17.9356 6.88172 17.8926ZM6.88172 18.2797C6.66666 18.2797 6.49462 18.4517 6.45161 18.6668C6.45161 18.8818 6.62365 19.0969 6.88172 19.0969C7.09677 19.0969 7.31183 18.9248 7.31183 18.6668C7.31183 18.4947 7.13978 18.2797 6.88172 18.2797Z" fill="white" stroke="#434343" stroke-width="0.2558" stroke-miterlimit="10"/>
<path d="M16.8172 18.7098C16.8172 19.1399 16.4301 19.527 16 19.484C15.5699 19.484 15.2258 19.1399 15.2258 18.6668C15.2258 18.2367 15.5699 17.8926 16 17.8926C16.4731 17.9356 16.8172 18.2797 16.8172 18.7098ZM16.043 18.2797C15.828 18.2797 15.6129 18.4517 15.6129 18.6668C15.6129 18.8818 15.828 19.0969 16.043 19.0969C16.3011 19.0969 16.4731 18.9248 16.4731 18.6668C16.4301 18.4517 16.2581 18.2797 16.043 18.2797Z" fill="white" stroke="#434343" stroke-width="0.2558" stroke-miterlimit="10"/>
<path d="M9.50538 17.8926C9.93548 17.8926 10.2796 18.2797 10.2796 18.7098C10.2796 19.1399 9.93548 19.484 9.50538 19.484C9.07527 19.484 8.68817 19.1399 8.68817 18.7098C8.73118 18.2797 9.11828 17.8926 9.50538 17.8926ZM9.93548 18.7098C9.93548 18.4947 9.76344 18.3227 9.54839 18.2797C9.29032 18.2797 9.11828 18.4517 9.11828 18.6668C9.11828 18.8818 9.29032 19.0969 9.50538 19.0969C9.76344 19.1399 9.93548 18.9678 9.93548 18.7098Z" fill="white" stroke="#434343" stroke-width="0.2558" stroke-miterlimit="10"/>
<path d="M10.4947 13.4195C10.8818 13.4195 11.2688 13.4195 11.6559 13.4195C11.871 13.4195 12 13.5055 12 13.7636C12 14.4947 12 15.1829 12 15.9141C12 16.1292 11.871 16.2582 11.6559 16.2582C10.8817 16.2582 10.1506 16.2582 9.37637 16.2582C9.16132 16.2582 9.03229 16.1292 9.03229 15.9141C9.03229 15.1829 9.03229 14.4517 9.03229 13.7206C9.03229 13.5055 9.11831 13.4195 9.37637 13.3765C9.72046 13.4195 10.1076 13.4195 10.4947 13.4195ZM10.4947 16.1292C10.8387 16.1292 11.2258 16.1292 11.5699 16.1292C11.742 16.1292 11.828 16.0431 11.828 15.8711C11.828 15.1829 11.828 14.4947 11.828 13.8066C11.828 13.6775 11.742 13.5915 11.6129 13.5915C11.4409 13.5915 11.3119 13.5915 11.1398 13.5915C11.0538 13.5915 11.0108 13.6345 11.0108 13.7206C11.0108 13.8496 11.0108 14.0216 10.9678 14.1076C10.8818 14.1937 10.7097 14.1507 10.5807 14.1507H10.5377C10.1506 14.1507 10.1076 14.1507 10.1076 13.7636C10.1076 13.6345 10.0645 13.5915 9.93551 13.5915C9.80648 13.5915 9.63444 13.5915 9.50541 13.5915C9.29035 13.5915 9.24734 13.6345 9.24734 13.8496C9.24734 14.4947 9.24734 15.1829 9.24734 15.8281C9.24734 16.0431 9.29035 16.1292 9.54842 16.1292C9.80648 16.1292 10.1506 16.1292 10.4947 16.1292ZM10.5377 13.9356C10.5807 13.9356 10.6667 13.9356 10.7097 13.9356C10.7527 13.9356 10.8387 13.8496 10.8387 13.8066C10.8817 13.5915 10.8387 13.5485 10.6237 13.5485C10.5377 13.5485 10.4947 13.5485 10.4086 13.5485C10.2796 13.5485 10.2366 13.5915 10.2366 13.7636C10.2366 13.8926 10.2796 13.9786 10.4516 13.9356C10.4516 13.9356 10.4947 13.9356 10.5377 13.9356Z" fill="#434343" stroke="#434343" stroke-width="0.2558" stroke-miterlimit="10"/>
<path d="M16.6452 15.742C16.4301 15.742 16.2581 15.742 16.043 15.742C15.914 15.742 15.871 15.699 15.871 15.5699C15.871 15.1829 15.871 14.7527 15.871 14.3656C15.871 14.2366 15.914 14.1936 16.043 14.1936C16.2581 14.1936 16.4731 14.1936 16.6882 14.1936C16.9462 14.1936 17.1183 14.3226 17.2043 14.5807C17.2903 14.8818 17.3763 15.2259 17.4624 15.5269C17.5054 15.656 17.4624 15.742 17.3333 15.742C17.0753 15.742 16.8602 15.742 16.6452 15.742ZM17.2903 15.5699C17.2043 15.2259 17.1183 14.8818 16.9893 14.5377C16.9462 14.4517 16.8602 14.3656 16.7742 14.3656C16.5591 14.3226 16.3441 14.3226 16.129 14.3226C16.086 14.3226 16.043 14.3656 16.043 14.4087C16.043 14.7958 16.043 15.1829 16.043 15.5699C16.4301 15.5699 16.8602 15.5699 17.2903 15.5699Z" fill="#434343" stroke="#434343" stroke-width="0.2558" stroke-miterlimit="10"/>
<path d="M17.1613 8.86025C17.1183 8.90326 17.0753 8.98928 17.0323 9.03229C16.9893 9.0753 16.9893 9.11831 16.9893 9.16132C16.9893 9.20434 17.0753 9.24735 17.1183 9.24735C17.3334 9.24735 17.3764 9.33337 17.3764 9.50541C17.3764 9.59143 17.3764 9.63444 17.3764 9.72046C17.3764 9.8495 17.2903 9.93552 17.1613 9.93552C17.1183 9.93552 17.0323 9.97853 17.0323 10.0215C17.0323 10.0646 17.0323 10.1506 17.0753 10.1936C17.2043 10.3226 17.1613 10.4086 17.0753 10.4947C17.0323 10.5377 16.9893 10.5807 16.9033 10.6667C16.7742 10.7957 16.6882 10.8387 16.5162 10.7097C16.4731 10.6667 16.4301 10.6667 16.3871 10.6667C16.3441 10.6667 16.3011 10.7527 16.3011 10.7957C16.3011 11.0108 16.2151 11.0538 16.043 11.0538C15.957 11.0538 15.871 11.0538 15.785 11.0538C15.6559 11.0538 15.5699 11.0108 15.5699 10.8387C15.5699 10.7957 15.5269 10.7097 15.5269 10.6667C15.4839 10.6667 15.3979 10.6667 15.3549 10.7097C15.2258 10.7957 15.1398 10.7957 15.0538 10.7097C15.0108 10.6667 14.9678 10.6237 14.9248 10.5807C14.7957 10.4516 14.7097 10.3656 14.8817 10.1936C14.9678 10.1076 14.9248 10.0215 14.7957 10.0215C14.5807 10.0215 14.5377 9.93552 14.5377 9.76347C14.5377 9.72046 14.5377 9.63444 14.5377 9.59143C14.5377 9.41939 14.5807 9.33337 14.7527 9.33337C14.7957 9.33337 14.8817 9.29036 14.8817 9.24735C14.8817 9.20434 14.8817 9.11831 14.8387 9.0753C14.7097 8.94627 14.7527 8.86025 14.8387 8.73122C14.8817 8.68821 14.9248 8.6452 14.9678 8.60218C15.0968 8.47315 15.1828 8.43014 15.3549 8.55917C15.3979 8.60218 15.4409 8.60218 15.4839 8.60218C15.5269 8.55917 15.5699 8.51616 15.5699 8.47315C15.5699 8.30111 15.6559 8.21509 15.828 8.21509C15.914 8.21509 15.957 8.21509 16.043 8.21509C16.2151 8.21509 16.3011 8.2581 16.3011 8.43014C16.3011 8.47315 16.3441 8.55917 16.3441 8.55917C16.3871 8.55917 16.4731 8.55917 16.5162 8.51616C16.6452 8.38713 16.7312 8.43014 16.8602 8.51616C16.9463 8.60218 16.9893 8.6452 17.0753 8.73122C17.1183 8.77423 17.1613 8.81724 17.1613 8.86025ZM16.9893 10.3656C16.9463 10.3226 16.9033 10.2796 16.9033 10.2366C16.9033 10.1506 16.8602 10.0215 16.9033 9.93552C16.9033 9.89251 17.0323 9.80649 17.0753 9.80649C17.2473 9.80649 17.2473 9.72046 17.2473 9.59143C17.2473 9.4624 17.2473 9.33337 17.0753 9.37638C16.9463 9.37638 16.9032 9.33337 16.8602 9.24735C16.7742 9.0753 16.9033 8.98928 16.9893 8.86025C16.9463 8.81724 16.9033 8.77423 16.9033 8.73122C16.8172 8.60218 16.7312 8.55917 16.6022 8.68821C16.5162 8.81724 16.2151 8.68821 16.2151 8.51616C16.2151 8.34412 16.1291 8.30111 16 8.30111C15.871 8.30111 15.785 8.34412 15.785 8.47315C15.785 8.51616 15.6989 8.6452 15.6129 8.6452C15.5269 8.68821 15.4409 8.6452 15.3549 8.60218C15.2688 8.51616 15.1828 8.51616 15.0968 8.60218C15.0538 8.6452 15.0108 8.68821 14.9678 8.77423C14.9678 8.81724 14.9678 8.81724 15.0108 8.81724C15.2258 9.0753 15.1398 9.24735 14.8387 9.29036C14.6667 9.33337 14.7527 9.4624 14.7527 9.54842C14.7527 9.63444 14.7957 9.72046 14.8817 9.67745C15.0108 9.67745 15.0968 9.72046 15.0968 9.8495C15.0968 9.97853 15.0538 10.1076 15.0538 10.1936C15.0108 10.1936 15.0108 10.1936 14.9678 10.1936C15.0538 10.2796 15.1398 10.3656 15.2258 10.4516C15.5699 10.1936 15.742 10.2796 15.785 10.6667H15.828C16.086 10.7097 16.086 10.7097 16.1721 10.4516C16.2151 10.3226 16.4301 10.2366 16.5592 10.3226C16.6022 10.3656 16.6452 10.4086 16.7312 10.4947C16.7742 10.4086 16.8172 10.3656 16.8602 10.3226C16.9032 10.4516 16.9463 10.4086 16.9893 10.3656Z" fill="#434343" stroke="#434343" stroke-width="0.2558" stroke-miterlimit="10"/>
<path d="M6.88177 18.2795C7.13983 18.2795 7.31188 18.4516 7.31188 18.7096C7.31188 18.9247 7.13983 19.0967 6.88177 19.1398C6.66671 19.1398 6.45166 18.9677 6.45166 18.7096C6.49467 18.4946 6.66671 18.3226 6.88177 18.2795ZM6.88177 18.4516C6.75274 18.4516 6.6237 18.5806 6.6237 18.7096C6.6237 18.8387 6.75274 18.9677 6.88177 18.9677C7.0108 18.9677 7.13983 18.8387 7.13983 18.7096C7.13983 18.5376 7.05381 18.4516 6.88177 18.4516Z" fill="#434343" stroke="#434343" stroke-width="0.2558" stroke-miterlimit="10"/>
<path d="M16.043 18.2795C16.3011 18.2795 16.4731 18.4516 16.4731 18.6666C16.4731 18.9247 16.3011 19.0967 16.043 19.0967C15.828 19.0967 15.6129 18.8817 15.6129 18.6666C15.6129 18.4946 15.785 18.3226 16.043 18.2795ZM16.043 18.4516C15.914 18.4516 15.785 18.5806 15.785 18.7096C15.785 18.8387 15.914 18.9677 16.043 18.9677C16.1721 18.9677 16.3011 18.8387 16.3011 18.7096C16.3011 18.5806 16.1721 18.4516 16.043 18.4516Z" fill="#434343" stroke="#434343" stroke-width="0.2558" stroke-miterlimit="10"/>
<path d="M9.93549 18.7098C9.93549 18.9249 9.76345 19.14 9.50538 19.14C9.29033 19.14 9.11829 18.9679 9.11829 18.7098C9.11829 18.4518 9.29033 18.2797 9.54839 18.3227C9.76345 18.3227 9.93549 18.4948 9.93549 18.7098ZM9.50538 18.9679C9.63442 18.9679 9.76345 18.8819 9.76345 18.7098C9.76345 18.5808 9.63442 18.4518 9.50538 18.4518C9.37635 18.4518 9.24732 18.5808 9.24732 18.7098C9.24732 18.8389 9.37635 18.9679 9.50538 18.9679Z" fill="#434343" stroke="#434343" stroke-width="0.2558" stroke-miterlimit="10"/>
<path d="M10.4946 16.1292C10.1506 16.1292 9.80648 16.1292 9.46239 16.1292C9.20433 16.1292 9.16132 16.0862 9.16132 15.8281C9.16132 15.183 9.16132 14.4948 9.16132 13.8496C9.16132 13.6346 9.20433 13.5916 9.41938 13.5916C9.54841 13.5916 9.72046 13.5916 9.84949 13.5916C9.97852 13.5916 9.97852 13.6346 10.0215 13.7636C10.0645 14.1507 10.0645 14.1507 10.4516 14.1507H10.4946C10.6237 14.1507 10.7957 14.1937 10.8817 14.1077C10.9678 14.0647 10.9248 13.8496 10.9248 13.7206C10.9248 13.6346 10.9678 13.5916 11.0538 13.5916C11.2258 13.5916 11.3549 13.5916 11.5269 13.5916C11.699 13.5916 11.742 13.6776 11.742 13.8066C11.742 14.4948 11.742 15.183 11.742 15.8711C11.742 16.0432 11.6559 16.1292 11.4839 16.1292C11.2258 16.1292 10.8387 16.1292 10.4946 16.1292ZM9.97852 15.484C9.93551 15.527 9.8925 15.57 9.84949 15.6131C9.8925 15.6561 9.93551 15.6561 9.97852 15.6561C10.0215 15.6561 10.0645 15.6131 10.1076 15.6131C10.0645 15.57 10.0215 15.527 9.97852 15.484ZM11.0108 15.6991C11.0538 15.6561 11.0968 15.6131 11.1398 15.57C11.0968 15.527 11.0538 15.527 11.0108 15.527C10.9678 15.527 10.9248 15.57 10.8817 15.57C10.9248 15.6131 10.9678 15.6561 11.0108 15.6991ZM10.4946 15.6991C10.5377 15.6561 10.5807 15.6131 10.5807 15.57C10.5377 15.527 10.4946 15.527 10.4516 15.527C10.4086 15.527 10.3656 15.57 10.3226 15.57C10.4086 15.6131 10.4516 15.6561 10.4946 15.6991Z" fill="white" stroke="#434343" stroke-width="0.2558" stroke-miterlimit="10"/>
<path d="M10.5376 13.9354C10.4946 13.9354 10.4516 13.9354 10.4086 13.9354C10.2796 13.9354 10.1935 13.8924 10.1935 13.7634C10.1935 13.6344 10.2366 13.5483 10.3656 13.5483C10.4516 13.5483 10.4946 13.5483 10.5806 13.5483C10.7957 13.5483 10.8387 13.5913 10.7957 13.8064C10.7957 13.8494 10.7097 13.8924 10.6667 13.9354C10.6667 13.9784 10.5806 13.9354 10.5376 13.9354Z" fill="white" stroke="#434343" stroke-width="0.2558" stroke-miterlimit="10"/>
<path d="M17.2903 15.5701C16.8602 15.5701 16.4301 15.5701 16.043 15.5701C16.043 15.183 16.043 14.7959 16.043 14.4088C16.043 14.3658 16.086 14.3228 16.1291 14.3228C16.3441 14.3228 16.5592 14.3228 16.7742 14.3658C16.8602 14.3658 16.9893 14.4518 16.9893 14.5378C17.1183 14.8819 17.2043 15.226 17.2903 15.5701Z" fill="white" stroke="#434343" stroke-width="0.2558" stroke-miterlimit="10"/>
<path d="M16.9893 10.3656C16.9463 10.4086 16.9033 10.4516 16.8603 10.4947C16.8172 10.5377 16.7742 10.6237 16.7312 10.6667C16.6452 10.5807 16.6022 10.5377 16.5592 10.4947C16.4732 10.4086 16.2151 10.4946 16.1721 10.6237C16.0861 10.8817 16.0861 10.8817 15.828 10.8387H15.785C15.699 10.4516 15.5699 10.3656 15.2258 10.6237C15.1398 10.5377 15.0538 10.4516 14.9678 10.3656C15.0108 10.3656 15.0108 10.3656 15.0538 10.3656C15.0538 10.2366 15.0968 10.1076 15.0968 10.0215C15.0968 9.8925 15.0108 9.80648 14.8818 9.84949C14.7957 9.84949 14.7527 9.80648 14.7527 9.72046C14.7527 9.63444 14.7097 9.5054 14.8388 9.46239C15.1828 9.37637 15.2258 9.24734 15.0108 8.98927C15.0108 8.98927 15.0108 8.94626 14.9678 8.94626C15.0108 8.90325 15.0538 8.86024 15.0968 8.77422C15.1828 8.6882 15.2258 8.6882 15.3549 8.77422C15.3979 8.81723 15.5269 8.81723 15.6129 8.81723C15.699 8.77422 15.785 8.6882 15.785 8.64519C15.785 8.47314 15.871 8.47314 16 8.47314C16.1721 8.47314 16.2151 8.51616 16.2151 8.6882C16.2151 8.86024 16.4732 8.94626 16.6022 8.86024C16.7312 8.6882 16.8172 8.77422 16.9033 8.90325C16.9463 8.94626 16.9463 8.98927 16.9893 9.03228C16.9033 9.16132 16.7742 9.24734 16.8603 9.41938C16.9033 9.5054 16.9463 9.59142 17.0753 9.54841C17.2474 9.54841 17.2474 9.63443 17.2474 9.76347C17.2474 9.8925 17.2474 9.97852 17.0753 9.97852C16.9893 9.97852 16.9033 10.0645 16.9033 10.1076C16.8603 10.1936 16.9033 10.2796 16.9033 10.4086C16.9033 10.2796 16.9463 10.3226 16.9893 10.3656ZM15.3979 9.59142C15.3979 9.93551 15.656 10.1936 16 10.1936C16.3441 10.1936 16.6022 9.93551 16.6022 9.59142C16.6022 9.24734 16.3441 8.98927 16 8.98927C15.6129 9.03228 15.3979 9.29035 15.3979 9.59142Z" fill="white" stroke="#434343" stroke-width="0.2558" stroke-miterlimit="10"/>
<path d="M6.88172 18.4517C7.01075 18.4517 7.13979 18.5377 7.13979 18.7097C7.13979 18.8388 7.05376 18.9678 6.88172 18.9678C6.75269 18.9678 6.62366 18.8388 6.62366 18.7097C6.62366 18.5807 6.75269 18.4517 6.88172 18.4517Z" fill="white" stroke="#434343" stroke-width="0.2558" stroke-miterlimit="10"/>
<path d="M16.043 18.4517C16.1721 18.4517 16.3011 18.5807 16.3011 18.7097C16.3011 18.8388 16.2151 18.9678 16.043 18.9678C15.914 18.9678 15.785 18.8818 15.785 18.7097C15.785 18.5807 15.871 18.4517 16.043 18.4517Z" fill="white" stroke="#434343" stroke-width="0.2558" stroke-miterlimit="10"/>
<path d="M9.50538 18.9678C9.37635 18.9678 9.24731 18.8388 9.24731 18.7097C9.24731 18.5807 9.37635 18.4517 9.50538 18.4517C9.63441 18.4517 9.76344 18.5807 9.76344 18.7097C9.76344 18.8818 9.67742 18.9678 9.50538 18.9678Z" fill="white" stroke="#434343" stroke-width="0.2558" stroke-miterlimit="10"/>
<path d="M15.3979 9.59141C15.3979 9.24732 15.656 8.98926 16 8.98926C16.3441 8.98926 16.6022 9.24732 16.6022 9.59141C16.6022 9.93549 16.3441 10.1936 16 10.1936C15.656 10.1936 15.3979 9.93549 15.3979 9.59141ZM16.4301 9.59141C16.4301 9.33334 16.2581 9.1613 16 9.1613C15.785 9.1613 15.5699 9.37635 15.5699 9.59141C15.5699 9.80646 15.785 10.0645 16 10.0645C16.2151 10.0645 16.3871 9.84947 16.4301 9.59141Z" fill="#434343" stroke="#434343" stroke-width="0.2558" stroke-miterlimit="10"/>
<path d="M16.4301 9.59153C16.4301 9.84959 16.215 10.0216 16 10.0216C15.7419 10.0216 15.5699 9.80658 15.5699 9.54852C15.5699 9.33346 15.7849 9.11841 16 9.11841C16.215 9.16142 16.4301 9.37647 16.4301 9.59153Z" fill="white" stroke="#434343" stroke-width="0.2558" stroke-miterlimit="10"/>
<path d="M13.1183 7.65591V7.44086H13.5484L12 5.50537L11.6989 5.72042L13.1183 7.65591Z" fill="white"/>
<path d="M18.4946 7.44102H18.7097L18.7527 7.95714L20 5.72058L19.7419 5.59155L18.4946 7.44102Z" fill="white"/>
</g>
<circle cx="12" cy="12" r="11.5" stroke="#434343"/>
<defs>
<clipPath id="clip0_313_16815">
<rect width="16" height="15.7419" fill="white" transform="translate(4 4)"/>
</clipPath>
</defs>
</svg>
